<?xml version="1.0" encoding="utf-8"?>
<!-- Generator: Adobe Illustrator 19.1.0, SVG Export Plug-In . SVG Version: 6.00 Build 0)  -->
<svg version="1.1" id="Layer_1" xmlns="http://www.w3.org/2000/svg" xmlns:xlink="http://www.w3.org/1999/xlink" x="0px" y="0px"
	 viewBox="-4 6 90 90" style="enable-background:new -4 6 90 90;" xml:space="preserve">
<style type="text/css">
	.st0{fill:#9DB770;}
	.st1{fill:#FFFFFF;}
</style>
<circle class="st0" cx="41" cy="51" r="28.2"/>
<g>
	<path class="st1" d="M23.9,65.2V39.9c0-0.8,0.3-1.5,0.8-2c0.6-0.6,1.2-0.8,2-0.8h4.6v-2.1c0-0.3,0.1-0.6,0.3-0.8
		c0.2-0.2,0.5-0.3,0.8-0.3s0.6,0.1,0.8,0.3c0.2,0.2,0.3,0.5,0.3,0.8v2.2h6.4v-2.2c0-0.3,0.1-0.6,0.3-0.8c0.2-0.2,0.5-0.3,0.8-0.3
		c0.3,0,0.6,0.1,0.8,0.3c0.2,0.2,0.3,0.5,0.3,0.8v2.2h6.4v-2.2c0-0.3,0.1-0.6,0.3-0.8c0.2-0.2,0.5-0.3,0.8-0.3
		c0.3,0,0.6,0.1,0.8,0.3c0.2,0.2,0.3,0.5,0.3,0.8v2.2h4.6c0.8,0,1.5,0.3,2,0.8c0.6,0.6,0.8,1.2,0.8,2v25.3c0,0.8-0.3,1.5-0.8,2
		c-0.6,0.6-1.2,0.8-2,0.8H26.8c-0.8,0-1.5-0.3-2-0.8C24.2,66.7,23.9,66,23.9,65.2L23.9,65.2z M26,65.2c0,0.2,0.1,0.4,0.2,0.6
		c0.1,0.1,0.3,0.2,0.6,0.2h28.5c0.2,0,0.4-0.1,0.6-0.2c0.1-0.1,0.2-0.3,0.2-0.6V39.9c0-0.2-0.1-0.4-0.2-0.6
		c-0.1-0.2-0.3-0.2-0.6-0.2h-4.6v2.2c0,0.3-0.1,0.6-0.3,0.8c-0.2,0.2-0.5,0.3-0.8,0.3s-0.6-0.1-0.8-0.3c-0.2-0.2-0.3-0.5-0.3-0.8
		v-2.2h-6.4v2.2c0,0.3-0.1,0.6-0.3,0.8c-0.2,0.2-0.5,0.3-0.8,0.3c-0.3,0-0.6-0.1-0.8-0.3c-0.2-0.2-0.3-0.5-0.3-0.8v-2.2h-6.4v2.2
		c0,0.3-0.1,0.6-0.3,0.8c-0.2,0.2-0.5,0.3-0.8,0.3c-0.3,0-0.6-0.1-0.8-0.3c-0.2-0.2-0.3-0.5-0.3-0.8v-2.2h-4.6
		c-0.2,0-0.4,0.1-0.6,0.2S26,39.7,26,39.9V65.2L26,65.2z M31.4,60.6v-3.2h4.3v3.2H31.4L31.4,60.6z M31.4,55.3V52h4.3v3.2H31.4
		L31.4,55.3z M31.4,49.9v-3.2h4.3v3.2L31.4,49.9L31.4,49.9z M38.8,60.6v-3.2h4.3v3.2H38.8z M38.8,55.3V52h4.3v3.2H38.8z M38.8,49.9
		v-3.2h4.3v3.2L38.8,49.9L38.8,49.9z M46.3,60.6v-3.2h4.3v3.2H46.3z M46.3,55.3V52h4.3v3.2H46.3z M46.3,49.9v-3.2h4.3v3.2L46.3,49.9
		L46.3,49.9z"/>
</g>
</svg>
