<svg xmlns="http://www.w3.org/2000/svg" viewBox="-4 6 90 90" enable-background="new -4 6 90 90"><style type="text/css">.st0{fill:#9DB770;} .st1{fill:#FFFFFF;}</style><circle class="st0" cx="41" cy="51" r="28.2"/><path class="st1" d="M23.9 65.2v-25.3c0-.8.3-1.5.8-2 .6-.6 1.2-.8 2-.8h4.6v-2.1c0-.3.1-.6.3-.8.2-.2.5-.3.8-.3s.6.1.8.3c.2.2.3.5.3.8v2.2h6.4v-2.2c0-.3.1-.6.3-.8.2-.2.5-.3.8-.3s.6.1.8.3c.2.2.3.5.3.8v2.2h6.4v-2.2c0-.3.1-.6.3-.8.2-.2.5-.3.8-.3s.6.1.8.3c.2.2.3.5.3.8v2.2h4.6c.8 0 1.5.3 2 .8.6.6.8 1.2.8 2v25.3c0 .8-.3 1.5-.8 2-.6.6-1.2.8-2 .8h-28.5c-.8 0-1.5-.3-2-.8-.6-.6-.9-1.3-.9-2.1zm2.1 0c0 .2.1.4.2.6.1.1.3.2.6.2h28.5c.2 0 .4-.1.6-.2.1-.1.2-.3.2-.6v-25.3c0-.2-.1-.4-.2-.6-.1-.2-.3-.2-.6-.2h-4.6v2.2c0 .3-.1.6-.3.8-.2.2-.5.3-.8.3s-.6-.1-.8-.3c-.2-.2-.3-.5-.3-.8v-2.2h-6.4v2.2c0 .3-.1.6-.3.8-.2.2-.5.3-.8.3s-.6-.1-.8-.3c-.2-.2-.3-.5-.3-.8v-2.2h-6.4v2.2c0 .3-.1.6-.3.8-.2.2-.5.3-.8.3s-.6-.1-.8-.3c-.2-.2-.3-.5-.3-.8v-2.2h-4.6c-.2 0-.4.1-.6.2-.2.1-.1.4-.1.6v25.3zm5.4-4.6v-3.2h4.3v3.2h-4.3zm0-5.3v-3.3h4.3v3.2l-4.3.1zm0-5.4v-3.2h4.3v3.2h-4.3zm7.4 10.7v-3.2h4.3v3.2h-4.3zm0-5.3v-3.3h4.3v3.2l-4.3.1zm0-5.4v-3.2h4.3v3.2h-4.3zm7.5 10.7v-3.2h4.3v3.2h-4.3zm0-5.3v-3.3h4.3v3.2l-4.3.1zm0-5.4v-3.2h4.3v3.2h-4.3z"/></svg>