<?xml version="1.0" encoding="utf-8"?>
<!-- Generator: Adobe Illustrator 19.1.0, SVG Export Plug-In . SVG Version: 6.00 Build 0)  -->
<svg version="1.1" id="Layer_1" xmlns="http://www.w3.org/2000/svg" xmlns:xlink="http://www.w3.org/1999/xlink" x="0px" y="0px"
	 viewBox="0 0 90 90" enable-background="new 0 0 90 90" xml:space="preserve">
<g>
	<path fill="#010101" d="M4.6,78.7V19c0-1.9,0.7-3.5,2-4.8s2.9-2,4.8-2h10.9V7.2c0-0.7,0.2-1.3,0.7-1.8s1.1-0.7,1.8-0.7
		c0.7,0,1.3,0.2,1.8,0.7c0.5,0.5,0.7,1.1,0.7,1.8v5.1h15.2V7.2c0-0.7,0.2-1.3,0.7-1.8s1.1-0.7,1.8-0.7c0.7,0,1.3,0.2,1.8,0.7
		s0.7,1.1,0.7,1.8v5.1h15.2V7.2c0-0.7,0.2-1.3,0.7-1.8c0.5-0.5,1.1-0.7,1.8-0.7c0.7,0,1.3,0.2,1.8,0.7s0.7,1.1,0.7,1.8v5.1h10.9
		c1.9,0,3.5,0.7,4.8,2c1.3,1.3,2,2.9,2,4.8v59.7c0,1.9-0.7,3.5-2,4.8c-1.3,1.3-2.9,2-4.8,2H11.4c-1.9,0-3.5-0.7-4.8-2
		S4.6,80.6,4.6,78.7L4.6,78.7z M9.6,78.7c0,0.5,0.2,0.9,0.5,1.3c0.3,0.3,0.7,0.5,1.3,0.5h67.2c0.5,0,0.9-0.2,1.3-0.5
		c0.3-0.3,0.5-0.7,0.5-1.3V19c0-0.5-0.2-0.9-0.5-1.3s-0.7-0.5-1.3-0.5H67.7v5.1c0,0.7-0.2,1.3-0.7,1.8s-1.1,0.7-1.8,0.7
		c-0.7,0-1.3-0.2-1.8-0.7c-0.5-0.5-0.7-1.1-0.7-1.8v-5.1H47.5v5.1c0,0.7-0.2,1.3-0.7,1.8c-0.5,0.5-1.1,0.7-1.8,0.7
		c-0.7,0-1.3-0.2-1.8-0.7s-0.7-1.1-0.7-1.8v-5.1H27.3v5.1c0,0.7-0.2,1.3-0.7,1.8s-1.1,0.7-1.8,0.7c-0.7,0-1.3-0.2-1.8-0.7
		c-0.5-0.5-0.7-1.1-0.7-1.8v-5.1H11.4c-0.5,0-0.9,0.2-1.3,0.5S9.6,18.5,9.6,19L9.6,78.7L9.6,78.7z M22.3,67.8v-7.6h10.1v7.6H22.3
		L22.3,67.8z M22.3,55.2v-7.6h10.1v7.6H22.3L22.3,55.2z M22.3,42.5V35h10.1v7.6H22.3L22.3,42.5z M39.9,67.8v-7.6h10.1v7.6H39.9z
		 M39.9,55.2v-7.6h10.1v7.6H39.9z M39.9,42.5V35h10.1v7.6H39.9z M57.6,67.8v-7.6h10.1v7.6H57.6z M57.6,55.2v-7.6h10.1v7.6H57.6z
		 M57.6,42.5V35h10.1v7.6H57.6z"/>
</g>
</svg>
