<?xml version="1.0" encoding="utf-8"?>
<!-- Generator: Adobe Illustrator 19.1.0, SVG Export Plug-In . SVG Version: 6.00 Build 0)  -->
<svg version="1.1" id="Layer_1" xmlns="http://www.w3.org/2000/svg" xmlns:xlink="http://www.w3.org/1999/xlink" x="0px" y="0px"
	 viewBox="-260 352 90 90" style="enable-background:new -260 352 90 90;" xml:space="preserve">
<g>
	<g id="XMLID_24_">
		<g>
			<path d="M-218.1,395.2c2,1.3,4,1.3,6,0c6.3-4.2,12.6-8.3,18.9-12.5c0.2-0.1,0.4-0.3,0.6-0.5c-15,0-29.8,0-44.8,0
				c0.3,0.2,0.5,0.3,0.6,0.4C-230.5,386.8-224.3,391-218.1,395.2z M-186.3,375.9c2.7,0,4.3,1.5,4.7,4.1c0.1,0.5,0.1,1,0.1,1.5
				c0,10.8,0,21.7,0,32.5c0,1.3-0.2,2.5-0.9,3.6c-0.8,1.2-1.9,1.9-3.4,1.9c-9.7,0-19.5,0-29.2,0c-9.6,0-19.2,0-28.8,0
				c-2.6,0-4.2-1.3-4.6-3.9c-0.1-0.5-0.1-1-0.1-1.5c0-10.9,0-21.8,0-32.7c0-1.2,0.2-2.4,0.8-3.5c0.8-1.4,2-2.1,3.6-2.1
				C-224.9,375.9-205.6,375.9-186.3,375.9z M-187.9,413.1c0-8.7,0-17.5,0-26.3c-0.3,0.2-0.5,0.3-0.8,0.5
				c-7.8,5.1-15.6,10.3-23.3,15.4c-2.1,1.4-4.1,1.4-6.2,0c-7.8-5.2-15.6-10.3-23.4-15.5c-0.2-0.1-0.4-0.3-0.7-0.5
				c0,8.8,0,17.5,0,26.3C-224.1,413.1-206,413.1-187.9,413.1z"/>
		</g>
		<g>
		</g>
	</g>
</g>
</svg>
