<svg xmlns="http://www.w3.org/2000/svg" viewBox="-4 6 90 90" enable-background="new -4 6 90 90"><style type="text/css">.st0{fill:#9DB770;} .st1{fill:#FFFFFF;}</style><path d="M-222.1 401.2c2 1.3 4 1.3 6 0l18.9-12.5c.2-.1.4-.3.6-.5h-44.8c.3.2.5.3.6.4 6.3 4.2 12.5 8.4 18.7 12.6zm31.8-19.3c2.7 0 4.3 1.5 4.7 4.1.1.5.1 1 .1 1.5v32.5c0 1.3-.2 2.5-.9 3.6-.8 1.2-1.9 1.9-3.4 1.9h-58c-2.6 0-4.2-1.3-4.6-3.9-.1-.5-.1-1-.1-1.5v-32.7c0-1.2.2-2.4.8-3.5.8-1.4 2-2.1 3.6-2.1 19.2.1 38.5.1 57.8.1zm-1.6 37.2v-26.3l-.8.5c-7.8 5.1-15.6 10.3-23.3 15.4-2.1 1.4-4.1 1.4-6.2 0l-23.4-15.5c-.2-.1-.4-.3-.7-.5v26.3c18.2.1 36.3.1 54.4.1z" id="XMLID_24_"/><circle class="st0" cx="41" cy="51" r="28.2"/><g id="XMLID_1_"><path class="st1" d="M39.4 49.5c1.1.7 2.2.7 3.4 0l10.6-7c.1-.1.2-.1.4-.3h-25.1c.2.1.3.2.4.3 3.3 2.4 6.8 4.7 10.3 7zm17.8-10.8c1.5 0 2.4.8 2.6 2.3 0 .3.1.6.1.8v18.2c0 .7-.1 1.4-.5 2-.5.7-1.1 1.1-1.9 1.1h-32.5c-1.4 0-2.3-.7-2.6-2.2l-.1-.8v-18.3c0-.7.1-1.4.5-2 .5-.8 1.1-1.2 2-1.2 10.7.1 21.5.1 32.4.1zm-.9 20.9v-14.8c-.2.1-.3.2-.4.3l-13.1 8.7c-1.2.8-2.3.8-3.5 0-4.4-2.9-8.8-5.8-13.1-8.7l-.4-.3v14.8h30.5z"/></g></svg>