<?xml version="1.0" encoding="utf-8"?>
<!-- Generator: Adobe Illustrator 19.1.0, SVG Export Plug-In . SVG Version: 6.00 Build 0)  -->
<svg version="1.1" id="Layer_1" xmlns="http://www.w3.org/2000/svg" xmlns:xlink="http://www.w3.org/1999/xlink" x="0px" y="0px"
	 viewBox="-4 6 90 90" style="enable-background:new -4 6 90 90;" xml:space="preserve">
<style type="text/css">
	.st0{fill:#9DB770;}
	.st1{fill:#FFFFFF;}
</style>
<g>
	<g id="XMLID_24_">
		<g>
			<path d="M-222.1,401.2c2,1.3,4,1.3,6,0c6.3-4.2,12.6-8.3,18.9-12.5c0.2-0.1,0.4-0.3,0.6-0.5c-15,0-29.8,0-44.8,0
				c0.3,0.2,0.5,0.3,0.6,0.4C-234.5,392.8-228.3,397-222.1,401.2z M-190.3,381.9c2.7,0,4.3,1.5,4.7,4.1c0.1,0.5,0.1,1,0.1,1.5
				c0,10.8,0,21.7,0,32.5c0,1.3-0.2,2.5-0.9,3.6c-0.8,1.2-1.9,1.9-3.4,1.9c-9.7,0-19.5,0-29.2,0c-9.6,0-19.2,0-28.8,0
				c-2.6,0-4.2-1.3-4.6-3.9c-0.1-0.5-0.1-1-0.1-1.5c0-10.9,0-21.8,0-32.7c0-1.2,0.2-2.4,0.8-3.5c0.8-1.4,2-2.1,3.6-2.1
				C-228.9,381.9-209.6,381.9-190.3,381.9z M-191.9,419.1c0-8.7,0-17.5,0-26.3c-0.3,0.2-0.5,0.3-0.8,0.5
				c-7.8,5.1-15.6,10.3-23.3,15.4c-2.1,1.4-4.1,1.4-6.2,0c-7.8-5.2-15.6-10.3-23.4-15.5c-0.2-0.1-0.4-0.3-0.7-0.5
				c0,8.8,0,17.5,0,26.3C-228.1,419.1-210,419.1-191.9,419.1z"/>
		</g>
	</g>
</g>
<circle class="st0" cx="41" cy="51" r="28.2"/>
<g>
	<g id="XMLID_1_">
		<g>
			<path class="st1" d="M39.4,49.5c1.1,0.7,2.2,0.7,3.4,0c3.5-2.3,7.1-4.7,10.6-7c0.1-0.1,0.2-0.1,0.4-0.3c-8.4,0-16.7,0-25.1,0
				c0.2,0.1,0.3,0.2,0.4,0.3C32.4,44.9,35.9,47.2,39.4,49.5z M57.2,38.7c1.5,0,2.4,0.8,2.6,2.3c0,0.3,0.1,0.6,0.1,0.8
				c0,6.1,0,12.2,0,18.2c0,0.7-0.1,1.4-0.5,2c-0.5,0.7-1.1,1.1-1.9,1.1c-5.5,0-10.9,0-16.4,0c-5.4,0-10.8,0-16.1,0
				c-1.4,0-2.3-0.7-2.6-2.2c0-0.3-0.1-0.5-0.1-0.8c0-6.1,0-12.2,0-18.3c0-0.7,0.1-1.4,0.5-2c0.5-0.8,1.1-1.2,2-1.2
				C35.5,38.7,46.3,38.7,57.2,38.7z M56.3,59.6c0-4.9,0-9.8,0-14.8c-0.2,0.1-0.3,0.2-0.4,0.3c-4.4,2.9-8.7,5.8-13.1,8.7
				c-1.2,0.8-2.3,0.8-3.5,0c-4.4-2.9-8.8-5.8-13.1-8.7c-0.1-0.1-0.3-0.2-0.4-0.3c0,5,0,9.8,0,14.8C36,59.6,46.1,59.6,56.3,59.6z"/>
		</g>
		<g>
		</g>
	</g>
</g>
</svg>
