<?xml version="1.0" encoding="utf-8"?>
<!-- Generator: Adobe Illustrator 19.1.0, SVG Export Plug-In . SVG Version: 6.00 Build 0)  -->
<svg version="1.1" id="Layer_1" xmlns="http://www.w3.org/2000/svg" xmlns:xlink="http://www.w3.org/1999/xlink" x="0px" y="0px"
	 viewBox="0 0 50 50" style="enable-background:new 0 0 50 50;" xml:space="preserve">
<style type="text/css">
	.st0{fill:#9EB770;}
</style>
<g>
	<g id="XMLID_2_">
		<g>
			<path class="st0" d="M25.4,7.5c9.2,0.2,16.7,7.9,16.7,17.5c0,9.7-7.7,17.6-17.4,17.4C15.5,42.3,7.9,34.6,7.9,25
				C7.9,15.2,15.7,7.3,25.4,7.5z M31,20.6c-1.4,0-2.7,0-4,0c0-0.1,0-0.1,0-0.2c0-0.8,0-1.7,0-2.5c0-0.9,0.5-1.4,1.4-1.4
				c0.9,0,1.7,0,2.6,0c0-1.5,0-3,0-4.5c-0.1,0-0.2,0-0.2,0c-1.5,0-3.1,0-4.6,0.1c-2.7,0.1-4.4,2-4.4,4.8c0,1.1,0,2.2,0,3.3
				c0,0.1,0,0.3,0,0.5c-0.9,0-1.7,0-2.5,0c0,1.5,0,2.9,0,4.4c0.9,0,1.7,0,2.6,0c0,4.4,0,8.7,0,13.1c1.8,0,3.5,0,5.3,0
				c0-4.4,0-8.7,0-13.1c1.1,0,2.1,0,3.2,0c0.3,0,0.4-0.1,0.4-0.4c0.1-0.6,0.2-1.2,0.2-1.8C30.8,22.1,30.9,21.4,31,20.6z"/>
		</g>
		<g>
		</g>
	</g>
</g>
</svg>
