<?xml version="1.0" encoding="utf-8"?>
<!-- Generator: Adobe Illustrator 19.1.0, SVG Export Plug-In . SVG Version: 6.00 Build 0)  -->
<svg version="1.1" id="Layer_1" xmlns="http://www.w3.org/2000/svg" xmlns:xlink="http://www.w3.org/1999/xlink" x="0px" y="0px"
	 viewBox="0 0 90 90" enable-background="new 0 0 90 90" xml:space="preserve">
<g>
	<g id="XMLID_20_">
		<g>
			<path d="M76.9,26.1c3,0,5,1,6.1,3.8c0,3.5,0,7,0,10.4c-10.9,0-21.8,0-32.9,0c0-4.7,0-9.3,0-14.2c0.7,0,1.3,0,2,0
				C60.4,26.1,68.6,26.2,76.9,26.1z"/>
			<path d="M78.3,76.8c0,2.9-0.8,5-3.4,6.3c-8.3,0-16.7,0-25,0c0-0.7,0.1-1.5,0.1-2.2c0-11.1,0-22.2,0-33.3c0-0.7,0-1.5,0-2.3
				c9.4,0,18.7,0,28.2,0c0,0.6,0,1.3,0,1.9C78.2,57.1,78.1,66.9,78.3,76.8z"/>
			<path d="M24.9,16.6c3.7,0.2,7.4,0.1,11.2,0.1c0.2,0,0.3-0.2,0.6-0.4c-3.3-3.1-7.2-4.7-11.7-4.4c-2.4,0.2-3.7,1-3.8,2.3
				C21.2,15.5,22.4,16.5,24.9,16.6z M69,8c2.9,1.1,4.4,3.2,4.4,6.2c0,3-1.5,5.2-4.4,6.2c-1.6,0.5-3.3,0.8-4.9,0.8
				c-12.7,0.1-25.4,0.1-38.2,0c-1.5,0-3-0.2-4.4-0.6c-3.1-0.9-4.9-3.2-5-6.2c-0.1-3.2,1.5-5.4,4.7-6.6c0.8-0.3,1.6-0.5,2.5-0.8
				c1.6,0,3.2,0,4.8,0c4,1,7.9,2.4,11,5.3c0.3,0.3,1.1,0.1,1.7,0c2.1-0.1,4.2-0.7,6.1-0.2c1.9,0.5,3.1,0.4,4.5-0.9
				C54.6,8.9,58,8,61.4,7.1c1.6,0,3.2,0,4.8,0C67.2,7.4,68.1,7.7,69,8z M66.2,16.4c1.3,0,2.6-0.6,2.5-2.2c-0.1-1.5-1.4-2-2.6-2.1
				c-4.9-0.7-9.1,0.9-12.9,4.4C57.7,16.4,62,16.5,66.2,16.4z"/>
			<path d="M40.2,45.2c0,12.6,0,25.3,0,37.9c-8.3,0-16.7,0-25,0c-2.6-1.3-3.5-3.4-3.4-6.3c0.1-9.8,0.1-19.6,0.1-29.4
				c0-0.7,0-1.3,0-2.1C21.3,45.2,30.6,45.2,40.2,45.2z"/>
			<path d="M40,26.1c0,4.7,0,9.3,0,14.2c-11,0-22,0-33.1,0c0-3.5,0-7,0-10.4c1.1-2.8,3.1-3.8,6.1-3.8C22,26.2,31,26.1,40,26.1z"/>
		</g>
		<g>
		</g>
	</g>
</g>
</svg>
