<?xml version="1.0" encoding="utf-8"?>
<!-- Generator: Adobe Illustrator 19.1.0, SVG Export Plug-In . SVG Version: 6.00 Build 0)  -->
<svg version="1.1" id="Layer_1" xmlns="http://www.w3.org/2000/svg" xmlns:xlink="http://www.w3.org/1999/xlink" x="0px" y="0px"
	 viewBox="-4 6 90 90" style="enable-background:new -4 6 90 90;" xml:space="preserve">
<style type="text/css">
	.st0{fill:#9DB770;}
	.st1{fill:#FFFFFF;}
</style>
<circle class="st0" cx="41" cy="51" r="28.2"/>
<g>
	<g id="XMLID_20_">
		<g>
			<path class="st1" d="M56.7,41.7c1.5,0,2.5,0.5,3,1.9c0,1.7,0,3.4,0,5.1c-5.3,0-10.7,0-16.1,0c0-2.3,0-4.6,0-7c0.3,0,0.6,0,1,0
				C48.5,41.7,52.5,41.8,56.7,41.7z"/>
			<path class="st1" d="M57.2,66.6c0,1.4-0.4,2.5-1.7,3.1c-4.1,0-8.2,0-12.3,0c0-0.3,0-0.7,0-1.1c0-5.4,0-10.9,0-16.3
				c0-0.3,0-0.7,0-1.1c4.6,0,9.2,0,13.8,0c0,0.3,0,0.6,0,0.9C57.2,56.9,57.2,61.7,57.2,66.6z"/>
			<path class="st1" d="M31.2,37.1c1.8,0.1,3.6,0,5.5,0c0.1,0,0.1-0.1,0.3-0.2c-1.6-1.5-3.5-2.3-5.7-2.2c-1.2,0.1-1.8,0.5-1.9,1.1
				C29.4,36.5,29.9,37,31.2,37.1z M52.8,32.8c1.4,0.5,2.2,1.6,2.2,3c0,1.5-0.7,2.5-2.2,3c-0.8,0.2-1.6,0.4-2.4,0.4
				c-6.2,0-12.4,0-18.7,0c-0.7,0-1.5-0.1-2.2-0.3c-1.5-0.4-2.4-1.6-2.5-3c0-1.6,0.7-2.6,2.3-3.2c0.4-0.1,0.8-0.2,1.2-0.4
				c0.8,0,1.6,0,2.4,0c2,0.5,3.9,1.2,5.4,2.6c0.1,0.1,0.5,0,0.8,0c1,0,2.1-0.3,3-0.1c0.9,0.2,1.5,0.2,2.2-0.4c1.4-1.1,3-1.6,4.7-2
				c0.8,0,1.6,0,2.4,0C51.9,32.5,52.2,32.7,52.8,32.8z M51.4,37c0.6,0,1.3-0.3,1.2-1.1c0-0.7-0.7-1-1.3-1C49,34.5,46.9,35.3,45,37
				C47.2,37,49.4,37,51.4,37z"/>
			<path class="st1" d="M38.7,51.1c0,6.2,0,12.4,0,18.6c-4.1,0-8.2,0-12.3,0c-1.3-0.6-1.7-1.7-1.7-3.1c0-4.8,0-9.6,0-14.4
				c0-0.3,0-0.6,0-1C29.4,51.1,34,51.1,38.7,51.1z"/>
			<path class="st1" d="M38.5,41.7c0,2.3,0,4.6,0,7c-5.4,0-10.8,0-16.2,0c0-1.7,0-3.4,0-5.1c0.5-1.4,1.5-1.9,3-1.9
				C29.8,41.8,34.2,41.7,38.5,41.7z"/>
		</g>
	</g>
</g>
</svg>
