<svg xmlns="http://www.w3.org/2000/svg" viewBox="-4 6 90 90" enable-background="new -4 6 90 90"><style type="text/css">.st0{fill:#9DB770;} .st1{fill:#FFFFFF;}</style><circle class="st0" cx="41" cy="51" r="28.2"/><g id="XMLID_20_"><path class="st1" d="M56.7 41.7c1.5 0 2.5.5 3 1.9v5.1h-16.1v-7h1c3.9 0 7.9.1 12.1 0zM57.2 66.6c0 1.4-.4 2.5-1.7 3.1h-12.3v-18.500000000000004h13.8v.9c.2 4.8.2 9.6.2 14.5zM31.2 37.1c1.8.1 3.6 0 5.5 0l.3-.2c-1.6-1.5-3.5-2.3-5.7-2.2-1.2.1-1.8.5-1.9 1.1 0 .7.5 1.2 1.8 1.3zm21.6-4.3c1.4.5 2.2 1.6 2.2 3 0 1.5-.7 2.5-2.2 3-.8.2-1.6.4-2.4.4h-18.7c-.7 0-1.5-.1-2.2-.3-1.5-.4-2.4-1.6-2.5-3 0-1.6.7-2.6 2.3-3.2.4-.1.8-.2 1.2-.4h2.4c2 .5 3.9 1.2 5.4 2.6.1.1.5 0 .8 0 1 0 2.1-.3 3-.1.9.2 1.5.2 2.2-.4 1.4-1.1 3-1.6 4.7-2h2.4c.5.1.8.3 1.4.4zm-1.4 4.2c.6 0 1.3-.3 1.2-1.1 0-.7-.7-1-1.3-1-2.3-.4-4.4.4-6.3 2.1h6.4zM38.7 51.1v18.6h-12.3c-1.3-.6-1.7-1.7-1.7-3.1v-15.4c4.7-.1 9.3-.1 14-.1zM38.5 41.7v7h-16.2v-5.1c.5-1.4 1.5-1.9 3-1.9 4.5.1 8.9 0 13.2 0z"/></g></svg>