<?xml version="1.0" encoding="utf-8"?>
<!-- Generator: Adobe Illustrator 19.1.0, SVG Export Plug-In . SVG Version: 6.00 Build 0)  -->
<svg version="1.1" id="Layer_1" xmlns="http://www.w3.org/2000/svg" xmlns:xlink="http://www.w3.org/1999/xlink" x="0px" y="0px"
	 viewBox="0 0 90 90" enable-background="new 0 0 90 90" xml:space="preserve">
<g>
	<g id="XMLID_18_">
		<g>
			<path d="M63.9,45.9c3.1-0.3,5.9,0.6,8.3,2.4c2.9,2.1,5,4.8,6.6,8c1.9,3.8,2.9,7.8,3.2,11.9c0.1,1.6,0.1,3.1,0.2,4.7
				c0,0,0,0.1,0,0.2c-5.3,0-10.6,0-15.9,0c0.3-9.3-1.3-18.1-5.2-26.7C62.1,46.2,63,46,63.9,45.9z"/>
			<path d="M69.4,42.2c-3.3,2-7.7,1.4-10.4-1.4c-3.4-3.5-3.7-9-0.6-12.9c3.4-4.2,9.6-4.2,13.1-0.2c1.4,1.7,2.4,4.1,2.3,6.3
				C73.8,37.6,72.4,40.4,69.4,42.2z"/>
			<path d="M51.2,43.5c2.8,1.4,5.1,3.4,7,5.9c2.7,3.5,4.4,7.5,5.4,11.7c1,3.8,1.3,7.7,1.2,11.6c0,0.1,0,0.2,0,0.3
				c-13.2,0-26.3,0-39.5,0c0-0.8,0-1.6,0-2.4c0.1-4.8,0.9-9.4,2.6-13.8c0.4-1.1,0.9-2.1,1.4-3.1c1.1-2.3,2.5-4.3,4.2-6.1
				c2.1-2.3,4.6-4,7.6-4.9C44.6,41.7,47.9,42,51.2,43.5z"/>
			<path d="M51.5,20.3c2.5,2.2,3.7,5,3.8,8.4c-0.1,3.7-1.7,6.9-5.1,9c-3.4,2.1-8,1.7-11.1-0.8c-3.5-2.9-4.7-7.7-3.3-11.9
				c0.9-2.7,2.6-4.8,5.2-6.1C44.3,17.2,48.6,17.8,51.5,20.3z"/>
			<path d="M23.7,72.8c0,0.3-0.1,0.3-0.4,0.3c-1.7,0-3.4,0-5.1,0c-2.2,0-4.4,0-6.6,0c-1.1,0-2.2,0-3.3,0c-0.1,0-0.3,0-0.5-0.1
				c0.1-1.6,0-3.3,0.2-4.9c0.2-2.8,0.8-5.5,1.7-8.2c1-3,2.4-5.8,4.5-8.3c2-2.5,4.5-4.4,7.6-5.4c2.4-0.7,4.8-0.7,7.2,0.1
				c-0.2,0.5-0.5,1.1-0.7,1.6c-1.2,2.7-2.1,5.6-2.8,8.5c-0.8,3.1-1.3,6.2-1.5,9.3C23.7,68.2,23.5,70.5,23.7,72.8z"/>
			<path d="M18.1,28.3c1.8-2.5,4.4-3.7,7.5-3.5c2.1,0.1,4,1,5.5,2.6c1.5,1.5,2.4,3.3,2.6,5.4c0.6,4.9-2.4,9.6-7.4,10.5
				c-0.5,0.1-0.9,0.1-1.4,0.1c-3.6-0.2-6.3-1.9-7.8-5.2C15.5,34.8,15.8,31.4,18.1,28.3z"/>
		</g>
		<g>
		</g>
	</g>
</g>
</svg>
