<?xml version="1.0" encoding="utf-8"?>
<!-- Generator: Adobe Illustrator 19.1.0, SVG Export Plug-In . SVG Version: 6.00 Build 0)  -->
<svg version="1.1" id="Layer_1" xmlns="http://www.w3.org/2000/svg" xmlns:xlink="http://www.w3.org/1999/xlink" x="0px" y="0px"
	 viewBox="-4 6 90 90" style="enable-background:new -4 6 90 90;" xml:space="preserve">
<style type="text/css">
	.st0{fill:#9DB770;}
	.st1{fill:#FFFFFF;}
</style>
<circle class="st0" cx="41" cy="51" r="28.2"/>
<g>
	<g id="XMLID_18_">
		<g>
			<path class="st1" d="M51.6,51.2c1.7-0.2,3.3,0.3,4.6,1.3c1.6,1.2,2.8,2.7,3.7,4.5c1.1,2.1,1.6,4.4,1.8,6.6
				c0.1,0.9,0.1,1.7,0.1,2.6c0,0,0,0.1,0,0.1c-3,0-5.9,0-8.9,0c0.2-5.2-0.7-10.1-2.9-14.9C50.5,51.4,51,51.3,51.6,51.2z"/>
			<path class="st1" d="M54.6,49.1c-1.8,1.1-4.3,0.8-5.8-0.8c-1.9-2-2.1-5-0.3-7.2c1.9-2.3,5.4-2.3,7.3-0.1c0.8,0.9,1.3,2.3,1.3,3.5
				C57.1,46.6,56.3,48.1,54.6,49.1z"/>
			<path class="st1" d="M44.5,49.9c1.6,0.8,2.8,1.9,3.9,3.3c1.5,2,2.5,4.2,3,6.5c0.6,2.1,0.7,4.3,0.7,6.5c0,0.1,0,0.1,0,0.2
				c-7.4,0-14.7,0-22.1,0c0-0.4,0-0.9,0-1.3c0.1-2.7,0.5-5.2,1.5-7.7c0.2-0.6,0.5-1.2,0.8-1.7c0.6-1.3,1.4-2.4,2.3-3.4
				c1.2-1.3,2.6-2.2,4.2-2.7C40.8,48.9,42.6,49,44.5,49.9z"/>
			<path class="st1" d="M44.6,36.9c1.4,1.2,2.1,2.8,2.1,4.7c-0.1,2.1-0.9,3.9-2.8,5c-1.9,1.2-4.5,0.9-6.2-0.4
				c-2-1.6-2.6-4.3-1.8-6.6c0.5-1.5,1.5-2.7,2.9-3.4C40.6,35.2,43,35.5,44.6,36.9z"/>
			<path class="st1" d="M29.1,66.2c0,0.2-0.1,0.2-0.2,0.2c-0.9,0-1.9,0-2.8,0c-1.2,0-2.5,0-3.7,0c-0.6,0-1.2,0-1.8,0
				c-0.1,0-0.2,0-0.3-0.1c0.1-0.9,0-1.8,0.1-2.7c0.1-1.6,0.4-3.1,0.9-4.6c0.6-1.7,1.3-3.2,2.5-4.6c1.1-1.4,2.5-2.5,4.2-3
				c1.3-0.4,2.7-0.4,4,0.1c-0.1,0.3-0.3,0.6-0.4,0.9c-0.7,1.5-1.2,3.1-1.6,4.7c-0.4,1.7-0.7,3.5-0.8,5.2
				C29.1,63.7,29,64.9,29.1,66.2z"/>
			<path class="st1" d="M26,41.4c1-1.4,2.5-2.1,4.2-2c1.2,0.1,2.2,0.6,3.1,1.5c0.8,0.8,1.3,1.8,1.5,3c0.3,2.7-1.3,5.4-4.1,5.9
				c-0.3,0.1-0.5,0.1-0.8,0.1c-2-0.1-3.5-1.1-4.4-2.9C24.5,45,24.7,43.1,26,41.4z"/>
		</g>
	</g>
</g>
</svg>
