<svg xmlns="http://www.w3.org/2000/svg" viewBox="-4 6 90 90" enable-background="new -4 6 90 90"><style type="text/css">.st0{fill:#9DB770;} .st1{fill:#FFFFFF;}</style><circle class="st0" cx="41" cy="51" r="28.2"/><g id="XMLID_18_"><path class="st1" d="M51.6 51.2c1.7-.2 3.3.3 4.6 1.3 1.6 1.2 2.8 2.7 3.7 4.5 1.1 2.1 1.6 4.4 1.8 6.6.1.9.1 1.7.1 2.6v.1h-8.9c.2-5.2-.7-10.1-2.9-14.9.5 0 1-.1 1.6-.2zM54.6 49.1c-1.8 1.1-4.3.8-5.8-.8-1.9-2-2.1-5-.3-7.2 1.9-2.3 5.4-2.3 7.3-.1.8.9 1.3 2.3 1.3 3.5 0 2.1-.8 3.6-2.5 4.6zM44.5 49.9c1.6.8 2.8 1.9 3.9 3.3 1.5 2 2.5 4.2 3 6.5.6 2.1.7 4.3.7 6.5v.2h-22.1v-1.3c.1-2.7.5-5.2 1.5-7.7.2-.6.5-1.2.8-1.7.6-1.3 1.4-2.4 2.3-3.4 1.2-1.3 2.6-2.2 4.2-2.7 2-.7 3.8-.6 5.7.3zM44.6 36.9c1.4 1.2 2.1 2.8 2.1 4.7-.1 2.1-.9 3.9-2.8 5-1.9 1.2-4.5.9-6.2-.4-2-1.6-2.6-4.3-1.8-6.6.5-1.5 1.5-2.7 2.9-3.4 1.8-1 4.2-.7 5.8.7zM29.1 66.2c0 .2-.1.2-.2.2h-8.3c-.1 0-.2 0-.3-.1l.1-2.7c.1-1.6.4-3.1.9-4.6.6-1.7 1.3-3.2 2.5-4.6 1.1-1.4 2.5-2.5 4.2-3 1.3-.4 2.7-.4 4 .1l-.4.9c-.7 1.5-1.2 3.1-1.6 4.7-.4 1.7-.7 3.5-.8 5.2-.1 1.4-.2 2.6-.1 3.9zM26 41.4c1-1.4 2.5-2.1 4.2-2 1.2.1 2.2.6 3.1 1.5.8.8 1.3 1.8 1.5 3 .3 2.7-1.3 5.4-4.1 5.9-.3.1-.5.1-.8.1-2-.1-3.5-1.1-4.4-2.9-1-2-.8-3.9.5-5.6z"/></g></svg>