<?xml version="1.0" encoding="utf-8"?>
<!-- Generator: Adobe Illustrator 19.1.0, SVG Export Plug-In . SVG Version: 6.00 Build 0)  -->
<svg version="1.1" id="Layer_1" xmlns="http://www.w3.org/2000/svg" xmlns:xlink="http://www.w3.org/1999/xlink" x="0px" y="0px"
	 viewBox="0 0 90 90" enable-background="new 0 0 90 90" xml:space="preserve">
<g>
	<g id="XMLID_33_">
		<g>
			<path d="M74.7,31.9c1.7,0,2.4,0.7,2.4,2.4c0,12.2,0,24.5,0,36.7c0,1.6-0.7,2.3-2.3,2.3c-8.6,0-17.2,0-25.7,0
				c-8.4,0-16.9,0-25.3,0c-2.2,0-2.7-0.5-2.7-2.7c0-12.1,0-24.2,0-36.3c0-1.6,0.7-2.3,2.3-2.3C40.5,31.9,57.6,31.9,74.7,31.9z
				 M73.2,69.3c0-11.2,0-22.3,0-33.5c-16.1,0-32.1,0-48.2,0c0,11.2,0,22.3,0,33.5C41.1,69.3,57.1,69.3,73.2,69.3z"/>
			<path d="M65.6,22.9c1.9,0,2.5,0.7,2.5,2.6c0,1.1,0,2.2,0,3.4c-0.7,0-1.3,0-1.9,0c-0.6,0-1.3,0-2,0c0-0.7,0-1.3,0-2
				c-16.1,0-32.1,0-48.2,0c0,11.1,0,22.2,0,33.5c0.6,0,1.2,0,1.9,0c0,1.3,0,2.5,0,3.9c-1.4,0-2.8,0.1-4.2,0C12.6,64.1,12,63.3,12,62
				c0-3.9,0-7.8,0-11.7c0-8.3,0-16.7,0-25c0-1.7,0.7-2.5,2.4-2.5C31.4,22.9,48.5,22.9,65.6,22.9z"/>
			<path d="M53.3,45.6c0.2-0.3,0.4-0.6,0.6-1c1.2,1.7,2.3,3.3,3.5,5c1.1,1.6,2.2,3.2,3.5,5c1.2-1.7,2.4-3.3,3.7-5.1
				c1.7,5.1,3.4,10,5,15c-13.7,0-27.3,0-41,0c0.5-2.1,1.5-3.7,3.1-4.9c1.9-1.4,4.1-2,6.4-2.1c2.1,0,4.2,0.2,6.3,0.4
				c0.6,0.1,0.9,0,1.2-0.5C48.2,53.4,50.8,49.5,53.3,45.6z"/>
			<path d="M37.4,51.5c-2.5,0-4.5-2.1-4.5-4.6c0-2.6,2-4.6,4.6-4.6c2.5,0,4.6,2.1,4.5,4.6C42.1,49.5,40,51.5,37.4,51.5z"/>
		</g>
		<g>
		</g>
	</g>
</g>
</svg>
