<?xml version="1.0" encoding="utf-8"?>
<!-- Generator: Adobe Illustrator 19.1.0, SVG Export Plug-In . SVG Version: 6.00 Build 0)  -->
<svg version="1.1" id="Layer_1" xmlns="http://www.w3.org/2000/svg" xmlns:xlink="http://www.w3.org/1999/xlink" x="0px" y="0px"
	 viewBox="-4 6 90 90" style="enable-background:new -4 6 90 90;" xml:space="preserve">
<style type="text/css">
	.st0{fill:#9DB770;}
	.st1{fill:#FFFFFF;}
</style>
<circle class="st0" cx="41" cy="51" r="28.2"/>
<g>
	<g id="XMLID_1_">
		<g>
			<path class="st1" d="M54.8,60c-7.5,0-15,0-22.6,0c0.3-1.2,0.8-2,1.7-2.7c1-0.8,2.2-1.1,3.5-1.1c1.1,0,2.3,0.1,3.5,0.2
				c0.3,0.1,0.5,0,0.7-0.3c1.4-2.2,2.9-4.3,4.2-6.5c0.1-0.2,0.2-0.3,0.3-0.6c0.7,0.9,1.3,1.8,1.9,2.8c0.6,0.9,1.2,1.8,1.9,2.8
				c0.7-0.9,1.3-1.8,2-2.8C53,54.6,53.9,57.3,54.8,60z"/>
			<path class="st1" d="M39.6,50.4c0.1,1.4-1.1,2.5-2.5,2.5c-1.4,0-2.5-1.2-2.5-2.5c0-1.4,1.1-2.5,2.5-2.5
				C38.5,47.8,39.7,49,39.6,50.4z"/>
			<path class="st1" d="M43.5,64.9c-4.6,0-9.3,0-13.9,0c-1.2,0-1.5-0.3-1.5-1.5c0-1.2,0-2.3,0-3.5c0-5.5,0-11,0-16.5
				c0-0.9,0.4-1.3,1.3-1.3c7.9,0,15.7,0,23.5,0c1.6,0,3.1,0,4.7,0c0.9,0,1.3,0.4,1.3,1.3c0,6.7,0,13.5,0,20.2c0,0.9-0.4,1.3-1.3,1.3
				C52.9,64.9,48.2,64.9,43.5,64.9z M56.8,44.3c-8.9,0-17.7,0-26.5,0c0,6.2,0,12.3,0,18.4c8.9,0,17.7,0,26.5,0
				C56.8,56.5,56.8,50.4,56.8,44.3z"/>
			<path class="st1" d="M24.4,37.1c9.3,0.1,18.8,0.1,28.2,0.1c1,0,1.4,0.4,1.4,1.4c0,0.6,0,1.2,0,1.9c-0.4,0-0.7,0-1.1,0
				c-0.3,0-0.7,0-1.1,0c0-0.4,0-0.7,0-1.1c-8.8,0-17.7,0-26.5,0c0,6.1,0,12.2,0,18.4c0.3,0,0.7,0,1,0c0,0.7,0,1.4,0,2.1
				c-0.8,0-1.5,0.1-2.3,0c-0.6-0.1-0.9-0.5-0.9-1.3c0-2.1,0-4.3,0-6.4c0-4.6,0-9.2,0-13.8C23.1,37.5,23.5,37.1,24.4,37.1z"/>
		</g>
		<g>
		</g>
	</g>
</g>
</svg>
