<svg xmlns="http://www.w3.org/2000/svg" viewBox="-4 6 90 90" enable-background="new -4 6 90 90"><style type="text/css">.st0{fill:#9DB770;} .st1{fill:#FFFFFF;}</style><circle class="st0" cx="41" cy="51" r="28.2"/><g id="XMLID_1_"><path class="st1" d="M54.8 60h-22.6c.3-1.2.8-2 1.7-2.7 1-.8 2.2-1.1 3.5-1.1 1.1 0 2.3.1 3.5.2.3.1.5 0 .7-.3 1.4-2.2 2.9-4.3 4.2-6.5.1-.2.2-.3.3-.6.7.9 1.3 1.8 1.9 2.8.6.9 1.2 1.8 1.9 2.8.7-.9 1.3-1.8 2-2.8 1.1 2.8 2 5.5 2.9 8.2zM39.6 50.4c.1 1.4-1.1 2.5-2.5 2.5s-2.5-1.2-2.5-2.5c0-1.4 1.1-2.5 2.5-2.5 1.4-.1 2.6 1.1 2.5 2.5zM43.5 64.9h-13.9c-1.2 0-1.5-.3-1.5-1.5v-20c0-.9.4-1.3 1.3-1.3h28.2c.9 0 1.3.4 1.3 1.3v20.2c0 .9-.4 1.3-1.3 1.3h-14.1zm13.3-20.6h-26.5v18.4h26.5v-18.4zM24.4 37.1c9.3.1 18.8.1 28.2.1 1 0 1.4.4 1.4 1.4v1.9h-2.2v-1.1h-26.5v18.4h1v2.1c-.8 0-1.5.1-2.3 0-.6-.1-.9-.5-.9-1.3v-20.200000000000003c0-.9.4-1.3 1.3-1.3z"/></g></svg>