<?xml version="1.0" encoding="utf-8"?>
<!-- Generator: Adobe Illustrator 19.1.0, SVG Export Plug-In . SVG Version: 6.00 Build 0)  -->
<svg version="1.1" id="Layer_1" xmlns="http://www.w3.org/2000/svg" xmlns:xlink="http://www.w3.org/1999/xlink" x="0px" y="0px"
	 viewBox="0 0 50 50" style="enable-background:new 0 0 50 50;" xml:space="preserve">
<style type="text/css">
	.st0{fill:#9EB770;}
</style>
<g>
	<g id="XMLID_1_">
		<g>
			<path class="st0" d="M42.3,25.3c0,9.7-7.9,17.6-17.6,17.6C15,42.9,7.1,35,7.1,25.3c0-9.7,7.8-17.6,17.6-17.6
				C34.4,7.7,42.3,15.6,42.3,25.3z M33.7,32.2c0-4.6,0-9.2,0-13.9c0-1.2-0.8-2-2-2c-4.6,0-9.2,0-13.9,0c-1.2,0-2,0.8-2,2
				c0,4.6,0,9.2,0,13.9c0,1.2,0.8,2,2,2c2.3,0,4.6,0,6.9,0c2.3,0,4.6,0,6.9,0C32.8,34.2,33.7,33.4,33.7,32.2z"/>
			<path class="st0" d="M31.7,18.5c0,0.6,0,1.1,0,1.6c0,0.5-0.3,0.7-0.8,0.7c-0.3,0-0.5,0-0.8,0v0c-0.3,0-0.6,0-0.8,0
				c-0.4,0-0.7-0.2-0.7-0.7c0-0.6,0-1.2,0-1.8c0-0.4,0.3-0.7,0.7-0.7c0.5,0,1.1,0,1.6,0C31.4,17.8,31.7,18.1,31.7,18.5z"/>
			<path class="st0" d="M31.7,24c0,2.4,0,4.9,0,7.3c0,0.8-0.2,1-1,1c-4,0-8.1,0-12.1,0c-0.8,0-1-0.2-1-1c0-2.4,0-4.9,0-7.3
				c0-0.1,0-0.2,0-0.4c0.6,0,1.1,0,1.7,0c-0.6,2.8,0.1,5,2.6,6.5c1.9,1.1,4,1,5.9-0.2c2.2-1.5,2.8-3.7,2.2-6.2c0.5,0,1.1,0,1.7,0
				C31.7,23.8,31.7,23.9,31.7,24z"/>
			<path class="st0" d="M28.3,25.3c0,2-1.6,3.6-3.6,3.6c-2.1,0-3.7-1.6-3.7-3.6c0-2,1.6-3.6,3.6-3.6C26.7,21.6,28.3,23.3,28.3,25.3z
				"/>
		</g>
		<g>
		</g>
	</g>
</g>
</svg>
