<?xml version="1.0" encoding="utf-8"?>
<!-- Generator: Adobe Illustrator 19.1.0, SVG Export Plug-In . SVG Version: 6.00 Build 0)  -->
<svg version="1.1" id="Layer_1" xmlns="http://www.w3.org/2000/svg" xmlns:xlink="http://www.w3.org/1999/xlink" x="0px" y="0px"
	 viewBox="0 0 100 100" style="enable-background:new 0 0 100 100;" xml:space="preserve">
<style type="text/css">
	.st0{fill:#FFFFFF;}
</style>
<g>
	<path class="st0" d="M4.3,24.3c0-6.6,0-13.1,0-19.7c30.6,0,61.2,0,91.9,0c0,30.6,0,61.2,0,91.9c-30.6,0-61.2,0-91.9,0
		c0-18.3,0-36.5,0-54.8c0.5,0.5,1,1.1,1.6,1.3c1.6,0.6,1.9,0.9,1.8,2.6c-0.3,8.2-0.7,16.5-1,24.7c-0.1,1.7-0.1,3.3-0.2,5
		C6.5,76.5,7,77,8.1,77c0.8,0,1.6,0,2.4,0c1.1,0,1.7-0.6,1.6-1.7C12.1,73.6,12,72,12,70.4c-0.3-8.3-0.7-16.5-1-24.8
		c-0.1-1.7,0.2-2,1.8-2.6c1.1-0.4,1.6-1,1.6-2.2c0-5.2,0-10.4,0-15.6c0-0.2,0.1-0.5,0-0.7c-0.1-0.2-0.5-0.6-0.6-0.6
		c-0.3,0-0.5,0.3-0.7,0.6c-0.1,0.2,0,0.5,0,0.7c0,3.2,0,6.4,0,9.6c0,0.3,0,0.7-0.1,1c-0.1,0.2-0.4,0.5-0.6,0.5
		c-0.2,0-0.5-0.3-0.6-0.5c-0.1-0.2-0.1-0.6-0.1-0.9c0-3.2,0-6.4,0-9.7c0-0.6,0.2-1.3-0.7-1.3c-0.8,0-0.7,0.8-0.7,1.3
		c0,3.2,0,6.4,0,9.7c0,0.2,0.1,0.5,0,0.7c-0.1,0.3-0.4,0.5-0.6,0.7c-0.2-0.2-0.5-0.5-0.7-0.8c-0.1-0.2,0-0.5,0-0.7
		c0-3.1,0-6.3,0-9.4c0-0.2,0.1-0.5,0-0.7c-0.2-0.3-0.4-0.6-0.7-0.9c-0.2,0.3-0.5,0.5-0.7,0.8c-0.1,0.2,0,0.4,0,0.6
		c0,3.2,0,6.3,0,9.5c0,0.3,0,0.7-0.1,1c-0.1,0.2-0.4,0.5-0.6,0.5c-0.2,0-0.5-0.3-0.6-0.5c-0.1-0.2-0.1-0.6-0.1-0.9
		c0-3.3,0-6.6,0-9.9c0-0.3-0.2-0.8-0.4-1C5.1,24,4.7,24.2,4.3,24.3z M20.1,50.5c0.1,16.8,13.6,30.2,30.2,30.1
		C67,80.5,80.3,67,80.3,50.3c-0.1-16.6-13.8-30.1-30.6-29.9C33.4,20.6,20,34.2,20.1,50.5z M96,50.3c0-8.7,0-17.4,0-26.1
		c0-1.4-0.8-1.9-2-1.1c-0.7,0.4-1.3,1-1.8,1.6c-1.4,1.7-2.1,3.7-2.6,5.8c-0.9,3.9-0.9,7.9-0.5,11.9c0.4,3.2,1.2,6.3,2.7,9.2
		c0.4,0.7,0.5,1.6,0.4,2.3c0,1.6-0.2,3.2-0.3,4.7c-0.3,4-0.7,7.9-1,11.9c-0.2,2.1-0.4,4.2-0.5,6.2c-0.1,1,0.4,1.5,1.5,1.6
		c0.7,0,1.4,0,2.1,0c1.6,0,2-0.4,2-1.9C96,67.7,96,59,96,50.3z"/>
	<path d="M4.3,24.3c0.3-0.1,0.8-0.4,1-0.2c0.2,0.1,0.4,0.6,0.4,1c0,3.3,0,6.6,0,9.9c0,0.3,0,0.6,0.1,0.9c0.1,0.2,0.4,0.5,0.6,0.5
		c0.2,0,0.5-0.3,0.6-0.5c0.1-0.3,0.1-0.6,0.1-1c0-3.2,0-6.3,0-9.5c0-0.2-0.1-0.5,0-0.6c0.2-0.3,0.5-0.6,0.7-0.8
		c0.2,0.3,0.5,0.6,0.7,0.9c0.1,0.2,0,0.5,0,0.7c0,3.1,0,6.3,0,9.4c0,0.2-0.1,0.5,0,0.7c0.2,0.3,0.5,0.5,0.7,0.8
		c0.2-0.2,0.5-0.5,0.6-0.7c0.1-0.2,0-0.5,0-0.7c0-3.2,0-6.4,0-9.7c0-0.5-0.2-1.3,0.7-1.3c0.9,0,0.7,0.8,0.7,1.3c0,3.2,0,6.4,0,9.7
		c0,0.3,0,0.6,0.1,0.9c0.1,0.2,0.4,0.5,0.6,0.5c0.2,0,0.5-0.3,0.6-0.5c0.1-0.3,0.1-0.6,0.1-1c0-3.2,0-6.4,0-9.6c0-0.2-0.1-0.5,0-0.7
		c0.2-0.3,0.4-0.6,0.7-0.6c0.2,0,0.5,0.3,0.6,0.6c0.1,0.2,0,0.5,0,0.7c0,5.2,0,10.4,0,15.6c0,1.2-0.5,1.8-1.6,2.2
		c-1.6,0.5-1.9,0.9-1.8,2.6c0.3,8.3,0.7,16.5,1,24.8c0.1,1.6,0.1,3.2,0.2,4.8c0,1.2-0.5,1.7-1.6,1.7c-0.8,0-1.6,0-2.4,0
		c-1.1,0-1.6-0.5-1.6-1.7c0-1.7,0.1-3.3,0.2-5c0.3-8.2,0.7-16.5,1-24.7c0.1-1.7-0.3-2-1.8-2.6c-0.6-0.2-1.1-0.9-1.6-1.3
		C4.3,35.9,4.3,30.1,4.3,24.3z"/>
	<path d="M20.1,50.5C20,34.2,33.4,20.6,49.6,20.4c16.8-0.2,30.6,13.3,30.6,29.9C80.3,67,67,80.5,50.3,80.6
		C33.7,80.7,20.2,67.3,20.1,50.5z M29,50.5c0.1,11.7,9.6,21.1,21.2,21.1c11.6,0,21.1-9.6,21.1-21.2c0-11.6-9.7-21.2-21.3-21.1
		C38.4,29.4,29,39,29,50.5z"/>
	<path d="M96,50.3c0,8.7,0,17.3,0,26c0,1.5-0.4,1.9-2,1.9c-0.7,0-1.4,0-2.1,0c-1.1,0-1.6-0.5-1.5-1.6c0.1-2.1,0.3-4.2,0.5-6.2
		c0.3-4,0.7-7.9,1-11.9c0.1-1.6,0.3-3.1,0.3-4.7c0-0.8-0.1-1.7-0.4-2.3c-1.6-2.9-2.3-6-2.7-9.2c-0.5-4-0.4-8,0.5-11.9
		c0.5-2.1,1.2-4.1,2.6-5.8c0.5-0.6,1.1-1.1,1.8-1.6c1.2-0.8,2-0.3,2,1.1C96,32.9,96,41.6,96,50.3z"/>
	<path class="st0" d="M29,50.5C29,39,38.4,29.4,50,29.4c11.6-0.1,21.2,9.4,21.3,21.1c0,11.6-9.5,21.1-21.1,21.2
		C38.6,71.7,29.1,62.2,29,50.5z M69.2,50.5c0.1-10.5-8.8-19.3-19.6-19c-10.3,0.3-18.5,8.9-18.4,19.2c0.1,10.4,8.7,18.8,19.3,18.7
		C60.7,69.4,69.2,60.8,69.2,50.5z"/>
	<path d="M69.2,50.5c0.1,10.3-8.4,18.9-18.7,19c-10.6,0-19.1-8.3-19.3-18.7c-0.1-10.3,8.1-18.9,18.4-19.2
		C60.4,31.2,69.2,40,69.2,50.5z"/>
</g>
</svg>
