<?xml version="1.0" encoding="utf-8"?>
<!-- Generator: Adobe Illustrator 19.1.0, SVG Export Plug-In . SVG Version: 6.00 Build 0)  -->
<svg version="1.1" id="Layer_1" xmlns="http://www.w3.org/2000/svg" xmlns:xlink="http://www.w3.org/1999/xlink" x="0px" y="0px"
	 viewBox="0 0 100 100" style="enable-background:new 0 0 100 100;" xml:space="preserve">
<style type="text/css">
	.st0{fill:#9DB770;}
	.st1{fill:#FFFFFF;}
</style>
<circle class="st0" cx="50" cy="50" r="28.2"/>
<g>
	<g id="XMLID_1_">
		<g>
			<path class="st1" d="M69.7,49.9c0,3.7,0,7.4,0,11.1c0,0.7-0.2,0.8-0.8,0.8c-0.3,0-0.6,0-0.9,0c-0.5,0-0.7-0.2-0.6-0.7
				c0.1-0.9,0.1-1.8,0.2-2.7c0.1-1.7,0.3-3.4,0.4-5.1c0.1-0.7,0.1-1.3,0.1-2c0-0.3,0-0.7-0.2-1c-0.7-1.2-1-2.6-1.2-3.9
				c-0.2-1.7-0.2-3.4,0.2-5.1c0.2-0.9,0.5-1.8,1.1-2.5c0.2-0.3,0.5-0.5,0.8-0.7c0.5-0.3,0.9-0.1,0.9,0.5
				C69.7,42.5,69.7,46.2,69.7,49.9z"/>
			<path class="st1" d="M62.9,49.9c0,7.1-5.7,12.9-12.8,13c-7.1,0-12.9-5.7-12.9-12.9c0-7,5.7-12.8,12.6-12.9
				C57,37,62.9,42.8,62.9,49.9z M50.1,59c5,0,9-4.1,9-9.1s-4.1-9.1-9.1-9c-5,0-9,4.1-9,9.1C41.1,55,45.1,59.1,50.1,59z"/>
			<path class="st1" d="M58.2,50c0,4.4-3.6,8.1-8,8.1c-4.5,0-8.2-3.6-8.2-8c-0.1-4.4,3.5-8.1,7.9-8.2C54.4,41.7,58.2,45.5,58.2,50z"
				/>
			<path class="st1" d="M34.7,38.9c0,0.1,0,0.2,0,0.3c0,2.2,0,4.4,0,6.7c0,0.5-0.2,0.8-0.7,0.9c-0.7,0.2-0.8,0.4-0.8,1.1
				c0.1,3.5,0.3,7.1,0.4,10.6c0,0.7,0.1,1.4,0.1,2.1c0,0.5-0.2,0.7-0.7,0.7c-0.3,0-0.7,0-1,0c-0.5,0-0.7-0.2-0.7-0.7
				c0-0.7,0.1-1.4,0.1-2.1c0.1-3.5,0.3-7,0.4-10.6c0-0.7-0.1-0.8-0.8-1.1c-0.3-0.1-0.4-0.4-0.7-0.6c0-2.5,0-5,0-7.4
				c0.1,0,0.3-0.2,0.4-0.1c0.1,0.1,0.2,0.3,0.2,0.4c0,1.4,0,2.8,0,4.3c0,0.1,0,0.3,0,0.4c0,0.1,0.2,0.2,0.3,0.2
				c0.1,0,0.2-0.1,0.3-0.2c0.1-0.1,0-0.3,0-0.4c0-1.4,0-2.7,0-4.1c0-0.1,0-0.2,0-0.3c0.1-0.1,0.2-0.2,0.3-0.4
				c0.1,0.1,0.2,0.2,0.3,0.4c0,0.1,0,0.2,0,0.3c0,1.3,0,2.7,0,4c0,0.1,0,0.2,0,0.3c0.1,0.1,0.2,0.2,0.3,0.3c0.1-0.1,0.2-0.2,0.3-0.3
				c0-0.1,0-0.2,0-0.3c0-1.4,0-2.8,0-4.1c0-0.2-0.1-0.6,0.3-0.6s0.3,0.3,0.3,0.6c0,1.4,0,2.8,0,4.1c0,0.1,0,0.3,0,0.4
				c0,0.1,0.2,0.2,0.3,0.2s0.2-0.1,0.3-0.2c0.1-0.1,0-0.3,0-0.4c0-1.4,0-2.7,0-4.1c0-0.1,0-0.2,0-0.3c0.1-0.1,0.2-0.2,0.3-0.3
				C34.5,38.7,34.7,38.8,34.7,38.9z"/>
		</g>
	</g>
</g>
</svg>
