<svg xmlns="http://www.w3.org/2000/svg" viewBox="0 0 100 100" enable-background="new 0 0 100 100"><style type="text/css">.st0{fill:#9DB770;} .st1{fill:#FFFFFF;}</style><circle class="st0" cx="50" cy="50" r="28.2"/><g id="XMLID_1_"><path class="st1" d="M69.7 49.9v11.1c0 .7-.2.8-.8.8h-.9c-.5 0-.7-.2-.6-.7l.2-2.7.4-5.1c.1-.7.1-1.3.1-2 0-.3 0-.7-.2-1-.7-1.2-1-2.6-1.2-3.9-.2-1.7-.2-3.4.2-5.1.2-.9.5-1.8 1.1-2.5.2-.3.5-.5.8-.7.5-.3.9-.1.9.5v11.3zM62.9 49.9c0 7.1-5.7 12.9-12.8 13-7.1 0-12.9-5.7-12.9-12.9 0-7 5.7-12.8 12.6-12.9 7.2-.1 13.1 5.7 13.1 12.8zm-12.8 9.1c5 0 9-4.1 9-9.1s-4.1-9.1-9.1-9c-5 0-9 4.1-9 9.1.1 5 4.1 9.1 9.1 9zM58.2 50c0 4.4-3.6 8.1-8 8.1-4.5 0-8.2-3.6-8.2-8-.1-4.4 3.5-8.1 7.9-8.2 4.5-.2 8.3 3.6 8.3 8.1zM34.7 38.9v7c0 .5-.2.8-.7.9-.7.2-.8.4-.8 1.1l.4 10.6.1 2.1c0 .5-.2.7-.7.7h-1c-.5 0-.7-.2-.7-.7l.1-2.1c.1-3.5.3-7 .4-10.6 0-.7-.1-.8-.8-1.1-.3-.1-.4-.4-.7-.6v-7.4c.1 0 .3-.2.4-.1.1.1.2.3.2.4v4.7c0 .1.2.2.3.2.1 0 .2-.1.3-.2.1-.1 0-.3 0-.4v-4.3999999999999995c.1-.1.2-.2.3-.4.1.1.2.2.3.4v4.6l.3.3.3-.3v-4.3999999999999995c0-.2-.1-.6.3-.6s.3.3.3.6v4.5c0 .1.2.2.3.2s.2-.1.3-.2c.1-.1 0-.3 0-.4v-4.3999999999999995l.3-.3c.3.1.5.2.5.3z"/></g></svg>