<svg xmlns="http://www.w3.org/2000/svg" viewBox="-4 6 90 90" enable-background="new -4 6 90 90"><style type="text/css">.st0{fill:#9DB770;} .st1{fill:#FFFFFF;}</style><circle class="st0" cx="41" cy="51" r="28.2"/><path class="st1" d="M40.3 29.1c0-.3.1-.7.3-.9.3-.3.5-.3.9-.3s.7.1.9.3c.3.3.3.5.3.9v2.1c3.4.3 6.6 1.5 9.5 3.8.5.4.8.8.8 1.2 0 .4-.1.8-.4 1-.3.3-.6.4-1 .4s-.7-.1-1-.3c-2.5-2-5.2-3.2-8-3.5v15c4.1.9 7.1 2.1 8.9 3.7 1.9 1.6 2.7 3.8 2.7 6.5s-1.1 5-3.2 6.9c-2.1 1.9-4.9 2.8-8.3 3v4.2c0 .3-.1.7-.3.9-.3.3-.5.3-.9.3s-.7-.1-.9-.3c-.3-.3-.3-.5-.3-.9v-4.3c-4.5-.3-8.5-2.1-12.1-5.2-.4-.3-.6-.7-.6-1.1 0-.4.1-.8.4-1 .3-.3.6-.4 1-.4s.7.1 1 .3c3.1 2.9 6.6 4.5 10.5 4.9v-15.4c-4-.9-6.9-2.1-8.7-3.7-1.8-1.6-2.7-3.7-2.7-6.5 0-2.7 1.1-5 3.2-6.8 2.1-1.9 4.8-2.8 8.1-2.9l-.1-1.9zm-6.1 6.6c-1.6 1.4-2.4 3-2.4 4.9 0 1.9.6 3.5 1.9 4.7 1.2 1.2 3.5 2.1 6.8 3v-14.8c-2.7.1-4.7.8-6.3 2.2zm15 28.5c1.6-1.4 2.5-3.1 2.5-5.1s-.6-3.6-1.9-4.7c-1.3-1.2-3.6-2.1-6.9-2.9v14.8c2.5 0 4.7-.7 6.3-2.1z"/></svg>