<?xml version="1.0" encoding="utf-8"?>
<!-- Generator: Adobe Illustrator 19.1.0, SVG Export Plug-In . SVG Version: 6.00 Build 0)  -->
<svg version="1.1" id="Layer_1" xmlns="http://www.w3.org/2000/svg" xmlns:xlink="http://www.w3.org/1999/xlink" x="0px" y="0px"
	 viewBox="-260 352 90 90" style="enable-background:new -260 352 90 90;" xml:space="preserve">
<g>
	<path d="M-215.8,366c0-0.5,0.2-1,0.5-1.3c0.4-0.4,0.8-0.5,1.3-0.5c0.5,0,1,0.2,1.3,0.5c0.4,0.4,0.5,0.8,0.5,1.3v3.1
		c4.9,0.4,9.6,2.2,13.9,5.5c0.7,0.6,1.1,1.1,1.1,1.7c0,0.6-0.2,1.1-0.6,1.4c-0.4,0.4-0.9,0.6-1.4,0.6c-0.5,0-1-0.2-1.4-0.5
		c-3.7-2.9-7.6-4.6-11.7-5.1v21.9c6,1.3,10.3,3,12.9,5.4c2.7,2.3,4,5.5,4,9.5c0,4-1.6,7.3-4.7,10c-3.1,2.7-7.2,4.1-12.1,4.3v6.1
		c0,0.5-0.2,1-0.5,1.3c-0.4,0.4-0.8,0.5-1.3,0.5c-0.5,0-1-0.2-1.3-0.5c-0.4-0.4-0.5-0.8-0.5-1.3v-6.2c-6.5-0.5-12.4-3.1-17.6-7.6
		c-0.6-0.5-0.9-1-0.9-1.6c0-0.6,0.2-1.1,0.6-1.4c0.4-0.4,0.9-0.6,1.4-0.6s1,0.2,1.4,0.5c4.5,4.2,9.6,6.6,15.3,7.1v-22.3
		c-5.8-1.3-10.1-3.1-12.7-5.4c-2.6-2.3-3.9-5.4-3.9-9.4c0-3.9,1.6-7.3,4.7-9.9c3.1-2.7,7-4.1,11.8-4.2V366z M-224.8,375.6
		c-2.3,2-3.5,4.4-3.5,7.2c0,2.8,0.9,5.1,2.7,6.8c1.8,1.7,5.1,3.1,9.9,4.3v-21.4C-219.5,372.6-222.5,373.6-224.8,375.6z
		 M-202.9,417.2c2.4-2,3.6-4.5,3.6-7.4c0-2.9-0.9-5.2-2.8-6.9c-1.9-1.7-5.2-3.1-10.1-4.2v21.6C-208.4,420.2-205.3,419.2-202.9,417.2
		z"/>
</g>
</svg>
