<?xml version="1.0" encoding="utf-8"?>
<!-- Generator: Adobe Illustrator 19.1.0, SVG Export Plug-In . SVG Version: 6.00 Build 0)  -->
<svg version="1.1" id="Layer_1" xmlns="http://www.w3.org/2000/svg" xmlns:xlink="http://www.w3.org/1999/xlink" x="0px" y="0px"
	 viewBox="-4 6 90 90" style="enable-background:new -4 6 90 90;" xml:space="preserve">
<style type="text/css">
	.st0{fill:#9DB770;}
	.st1{fill:#FFFFFF;}
</style>
<circle class="st0" cx="41" cy="51" r="28.2"/>
<g>
	<path class="st1" d="M40.3,29.1c0-0.3,0.1-0.7,0.3-0.9c0.3-0.3,0.5-0.3,0.9-0.3s0.7,0.1,0.9,0.3c0.3,0.3,0.3,0.5,0.3,0.9v2.1
		c3.4,0.3,6.6,1.5,9.5,3.8c0.5,0.4,0.8,0.8,0.8,1.2c0,0.4-0.1,0.8-0.4,1c-0.3,0.3-0.6,0.4-1,0.4s-0.7-0.1-1-0.3
		c-2.5-2-5.2-3.2-8-3.5v15c4.1,0.9,7.1,2.1,8.9,3.7c1.9,1.6,2.7,3.8,2.7,6.5s-1.1,5-3.2,6.9c-2.1,1.9-4.9,2.8-8.3,3v4.2
		c0,0.3-0.1,0.7-0.3,0.9c-0.3,0.3-0.5,0.3-0.9,0.3s-0.7-0.1-0.9-0.3c-0.3-0.3-0.3-0.5-0.3-0.9v-4.3c-4.5-0.3-8.5-2.1-12.1-5.2
		c-0.4-0.3-0.6-0.7-0.6-1.1c0-0.4,0.1-0.8,0.4-1c0.3-0.3,0.6-0.4,1-0.4s0.7,0.1,1,0.3c3.1,2.9,6.6,4.5,10.5,4.9V50.9
		c-4-0.9-6.9-2.1-8.7-3.7c-1.8-1.6-2.7-3.7-2.7-6.5c0-2.7,1.1-5,3.2-6.8c2.1-1.9,4.8-2.8,8.1-2.9L40.3,29.1L40.3,29.1z M34.2,35.7
		c-1.6,1.4-2.4,3-2.4,4.9c0,1.9,0.6,3.5,1.9,4.7c1.2,1.2,3.5,2.1,6.8,3V33.5C37.8,33.6,35.8,34.3,34.2,35.7z M49.2,64.2
		c1.6-1.4,2.5-3.1,2.5-5.1s-0.6-3.6-1.9-4.7c-1.3-1.2-3.6-2.1-6.9-2.9v14.8C45.4,66.3,47.6,65.6,49.2,64.2z"/>
</g>
</svg>
