<?xml version="1.0" encoding="utf-8"?>
<!-- Generator: Adobe Illustrator 19.1.0, SVG Export Plug-In . SVG Version: 6.00 Build 0)  -->
<svg version="1.1" id="Layer_1" xmlns="http://www.w3.org/2000/svg" xmlns:xlink="http://www.w3.org/1999/xlink" x="0px" y="0px"
	 viewBox="-4 6 90 90" style="enable-background:new -4 6 90 90;" xml:space="preserve">
<style type="text/css">
	.st0{fill:#9DB770;}
	.st1{fill:#FFFFFF;}
</style>
<circle class="st0" cx="41" cy="51" r="28.2"/>
<g>
	<g id="XMLID_1_">
		<g>
			<path class="st1" d="M45.8,54.6c4.4,0,8.8,0,13.2,0c0-5.6,0-11.2,0-16.8c-4.4,0-8.8,0-13.2,0C45.8,43.5,45.8,49,45.8,54.6z
				 M61.4,35.5c0,7.1,0,14.3,0,21.6c-2.6,0-5.2,0-7.8,0c0,3.2,0,6.3,0,9.5c-6.4,0-12.7,0-19.1,0c0-2.7,0-5.5,0-8.3
				c-0.5,0-0.8,0-1.2,0c-3.9,0-7.9,0-11.8,0c-0.5,0-0.9,0.1-0.9-0.7c0-0.9,0-1.8,0-2.7h2.3c0,0.8,0.1,1.1,1,1.1c3.2-0.1,6.5,0,9.6,0
				c0.3,0,0.5,0,0.9-0.1c0-1.4,0-2.7,0-4.2c1.7,0,3.4,0,5.1,0c0-3,0-6,0-9v-2.3c0.8,0,1.7,0,2.5,0c0,3.8,0,7.5,0,11.3
				c0.5,0,0.8,0,1.4,0c0-5.3,0-10.7,0-16.1C49.4,35.5,55.4,35.5,61.4,35.5z"/>
			<path class="st1" d="M35.3,40.3c1.4,0,2.8,0,4.2,0v2.3c-1.3,0-2.5,0-3.7,0c-0.1,0-0.5,0.4-0.5,0.5c-0.1,0.9,0,1.8,0,2.7
				c0,0.9,0,1.7,0,2.7c-3.7,0-7.4,0-11,0c0-1.7,0-3.3,0-4.9c0-1.1,0-1.1-1.3-1c0,0.3-0.1,0.6-0.1,0.9c0.1,3.8,0.1,7.6,0,11.3h-2.3
				c0-4.6,0-9.3,0-14c0-0.1,0-0.3,0.1-0.6c1,0,2,0,3,0c0.5,0,0.7-0.2,0.7-0.7c0-1.4,0-2.7,0-4.1c3.7,0,7.3,0,11,0
				C35.3,37.1,35.3,38.6,35.3,40.3z"/>
		</g>
		<g>
		</g>
	</g>
</g>
</svg>
