<?xml version="1.0" encoding="utf-8"?>
<!-- Generator: Adobe Illustrator 19.1.0, SVG Export Plug-In . SVG Version: 6.00 Build 0)  -->
<svg version="1.1" id="Layer_1" xmlns="http://www.w3.org/2000/svg" xmlns:xlink="http://www.w3.org/1999/xlink" x="0px" y="0px"
	 viewBox="0 0 90 90" enable-background="new 0 0 90 90" xml:space="preserve">
<g>
	<g id="XMLID_26_">
		<g>
			<path d="M21.4,52.2c0,1,0.2,1.4,1.3,1.4c4.2-0.1,8.5,0,12.7,0c0.4,0,0.7,0,1.2-0.1c0-1.8,0-3.6,0-5.5c2.3,0,4.5,0,6.7,0
				c0-4,0-7.9,0-11.9c-1.7,0-3.3,0-4.9,0c-0.2,0-0.6,0.5-0.7,0.7c-0.1,1.2,0,2.4,0,3.6c0,1.2,0,2.3,0,3.5c-4.9,0-9.7,0-14.5,0
				c0-2.2,0-4.4,0-6.5c0-1.5,0-1.5-1.7-1.3c0,0.4-0.1,0.8-0.1,1.2C21.5,42.3,21.5,47.3,21.4,52.2z M18.5,33c1.3,0,2.6,0,3.9,0
				c0.7,0,0.9-0.2,0.9-0.9c0-1.8,0-3.5,0-5.4c4.9,0,9.6,0,14.5,0c0,2.1,0,4.1,0,6.3c3,0,5.9,0,8.8,0c0,5,0,9.9,0,14.9
				c0.6,0,1.1,0,1.8,0c0-7,0-14.1,0-21.2c8,0,15.8,0,23.8,0c0,9.4,0,18.8,0,28.4c-3.4,0-6.8,0-10.3,0c0,4.2,0,8.3,0,12.5
				c-8.4,0-16.7,0-25.1,0c0-3.6,0-7.2,0-10.9c-0.6,0-1.1,0-1.6,0c-5.2,0-10.4,0-15.6,0c-0.6,0-1.2,0.1-1.2-0.9c0-7.3,0-14.7,0-22
				C18.4,33.6,18.4,33.4,18.5,33z M69,51.9c0-7.4,0-14.7,0-22.1c-5.8,0-11.6,0-17.4,0c0,7.4,0,14.7,0,22.1
				C57.4,51.9,63.2,51.9,69,51.9z"/>
		</g>
		<g>
		</g>
	</g>
</g>
</svg>
