<svg xmlns="http://www.w3.org/2000/svg" viewBox="-4 6 90 90" enable-background="new -4 6 90 90"><style type="text/css">.st0{fill:#9DB770;} .st1{fill:#FFFFFF;}</style><circle class="st0" cx="41" cy="51" r="28.2"/><g id="XMLID_1_"><path class="st1" d="M45.8 54.6h13.2v-16.8h-13.2v16.8zm15.6-19.1v21.6h-7.8v9.5h-19.1v-8.3h-13c-.5 0-.9.1-.9-.7v-2.7h2.3c0 .8.1 1.1 1 1.1 3.2-.1 6.5 0 9.6 0 .3 0 .5 0 .9-.1v-4.2h5.1v-11.3h2.5v11.3h1.4v-16.1c6-.1 12-.1 18-.1zM35.3 40.3h4.2v2.3h-3.7c-.1 0-.5.4-.5.5-.1.9 0 1.8 0 2.7v2.7h-11v-4.9c0-1.1 0-1.1-1.3-1l-.1.9c.1 3.8.1 7.6 0 11.3h-2.3v-14c0-.1 0-.3.1-.6h3c.5 0 .7-.2.7-.7v-4.1h11c-.1 1.7-.1 3.2-.1 4.9z"/></g></svg>