<svg xmlns="http://www.w3.org/2000/svg" viewBox="-4 6 90 90" enable-background="new -4 6 90 90"><style type="text/css">.st0{fill:#9DB770;} .st1{fill:#FFFFFF;}</style><circle class="st0" cx="42" cy="51.8" r="28.2"/><g id="XMLID_1_"><path class="st1" d="M56.4 45c1.5 2 2.2 4.3 1.8 6.8-.3 1.8-1.5 3.1-2.8 4.4.6-2 .8-4-.3-5.8-1.2-1.9-3.1-2.8-5.2-3.7v12.8c0 3.3-2 5.7-5.2 6.4-1.2.1-2.5.1-3.7-.3-2.3-.9-3.3-3.2-2.2-5.5 1.2-2.4 3.3-3.5 5.9-3.8h1.7v-20h.2c1.3 1.9 3 3.2 4.9 4.4 1.9 1.2 3.6 2.5 4.9 4.3zM43.6 35.8c.8 0 1.5.7 1.5 1.5s-.7 1.5-1.5 1.5v-3zM43.6 42.6c.8 0 1.5.7 1.5 1.5s-.7 1.5-1.5 1.5v-3zM43.6 49.5c.8 0 1.5.7 1.5 1.5s-.7 1.5-1.5 1.5v-3zM43.6 52.5h-18.5c.8 0 1.5-.7 1.5-1.5s-.7-1.5-1.5-1.5h18.5c-.8 0-1.5.7-1.5 1.5s.7 1.5 1.5 1.5zM43.6 49.5v3c-.8 0-1.5-.7-1.5-1.5s.7-1.5 1.5-1.5zM43.6 42.6v3c-.8 0-1.5-.7-1.5-1.5s.7-1.5 1.5-1.5zM43.6 42.6c-.8 0-1.5.7-1.5 1.5s.7 1.5 1.5 1.5h-18.5c.8 0 1.5-.7 1.5-1.5s-.7-1.5-1.5-1.5h18.5zM43.6 35.8v3c-.8 0-1.5-.7-1.5-1.5s.7-1.5 1.5-1.5zM43.6 35.8c-.8 0-1.5.7-1.5 1.5s.7 1.5 1.5 1.5h-18.5c.8 0 1.5-.7 1.5-1.5s-.7-1.5-1.5-1.5h18.5zM36.8 57.9c0 .8-.6 1.5-1.4 1.5v-2.9c.8-.1 1.4.6 1.4 1.4zM35.4 63.2c.8 0 1.4.7 1.4 1.5s-.6 1.4-1.4 1.5v-3zM35.4 63.2v2.9h-.1c-.8 0-1.5-.7-1.5-1.5s.7-1.4 1.6-1.4zM35.4 59.3zM35.4 56.4v2.9h-.1c-.8 0-1.5-.7-1.5-1.5s.7-1.4 1.6-1.4zM35.4 63.2zM35.4 66.2h-10.3v-.1c.2.1.3.1.5.1.8 0 1.5-.7 1.5-1.5s-.7-1.5-1.5-1.5h9.7c-.8 0-1.5.7-1.5 1.5s.7 1.5 1.6 1.5zM25.6 56.4c.8 0 1.5.7 1.5 1.5s-.7 1.5-1.5 1.5c-.2 0-.3 0-.4-.1v-2.8c.1-.1.3-.1.4-.1zM25.6 63.2c.8 0 1.5.7 1.5 1.5s-.7 1.5-1.5 1.5c-.2 0-.3 0-.5-.1v-2.8l.5-.1zM25.6 56.4c-.2 0-.3 0-.4.1v-.1h10.2v.1h-.1c-.8 0-1.5.7-1.5 1.5s.7 1.5 1.5 1.5h-9.7c.8 0 1.5-.7 1.5-1.5s-.7-1.6-1.5-1.6zM25.6 59.4h-.4v-.1l.4.1zM25.1 63.2h.5c-.2 0-.3.1-.5 0zM25.1 38.7v-3c.8 0 1.5.7 1.5 1.5s-.6 1.5-1.5 1.5zM25.1 42.6c.8 0 1.5.7 1.5 1.5s-.7 1.5-1.5 1.5v-3zM25.1 49.5c.8 0 1.5.7 1.5 1.5s-.7 1.5-1.5 1.5v-3zM25.2 56.5v2.8c-.6-.2-1-.8-1-1.4-.1-.7.4-1.3 1-1.4zM25.1 63.3v2.8c-.6-.2-1-.8-1-1.4s.4-1.2 1-1.4zM25.1 49.5v3c-.8 0-1.5-.7-1.5-1.5s.7-1.5 1.5-1.5zM25.1 42.6v3c-.8 0-1.5-.7-1.5-1.5s.7-1.5 1.5-1.5zM25.1 35.8v3c-.8 0-1.5-.7-1.5-1.5s.7-1.5 1.5-1.5z"/></g></svg>