<?xml version="1.0" encoding="utf-8"?>
<!-- Generator: Adobe Illustrator 19.1.0, SVG Export Plug-In . SVG Version: 6.00 Build 0)  -->
<svg version="1.1" id="Layer_1" xmlns="http://www.w3.org/2000/svg" xmlns:xlink="http://www.w3.org/1999/xlink" x="0px" y="0px"
	 viewBox="0 0 90 90" enable-background="new 0 0 90 90" xml:space="preserve">
<g>
	<g>
		<g id="XMLID_34_">
			<g>
				<path d="M67.9,22.6c4.3,2.6,8.3,5.6,11.3,9.7c3.5,4.7,5.1,9.8,4.2,15.6C82.7,52.1,80,55,77.1,58c1.4-4.6,1.9-9.1-0.8-13.4
					c-2.8-4.3-7.1-6.5-11.8-8.5c0,0.7-0.1,1.3-0.1,1.8c0,9.1,0,18.3,0,27.4c0,7.6-4.5,13.1-12,14.6c-2.9,0.6-5.7,0.6-8.5-0.5
					c-5.4-2.1-7.6-7.4-5-12.6c2.7-5.5,7.5-8.1,13.5-8.6c1.2-0.1,2.4,0,3.9,0c0-15.3,0-30.5,0-45.8c0.2,0.1,0.4,0,0.4,0.1
					C59.6,16.8,63.6,19.9,67.9,22.6z"/>
				<path d="M49.9,11.1c0,2.3,0,4.5,0,6.8c-14.1,0-28.2,0-42.4,0c0-2.3,0-4.5,0-6.8C21.6,11.1,35.7,11.1,49.9,11.1z"/>
				<path d="M49.9,42.6c0,2.3,0,4.5,0,6.9c-14.1,0-28.2,0-42.4,0c0-2.4,0-4.6,0-6.9C21.7,42.6,35.7,42.6,49.9,42.6z"/>
				<path d="M49.9,26.8c0,2.3,0,4.6,0,6.9c-14.1,0-28.2,0-42.4,0c0-2.3,0-4.6,0-6.9C21.6,26.8,35.7,26.8,49.9,26.8z"/>
				<path d="M31,74.1c0,2.3,0,4.5,0,6.9c-7.8,0-15.6,0-23.5,0c0-2.4,0-4.6,0-6.9C15.4,74.1,23.2,74.1,31,74.1z"/>
				<path d="M31,58.3c0,2.3,0,4.5,0,6.9c-7.8,0-15.6,0-23.4,0c0-2.3,0-4.6,0-6.9C15.4,58.3,23.1,58.3,31,58.3z"/>
			</g>
			<g>
			</g>
		</g>
	</g>
	<ellipse cx="49.9" cy="14.5" rx="3.4" ry="3.4"/>
	<ellipse cx="7.5" cy="14.5" rx="3.4" ry="3.4"/>
	<ellipse cx="49.9" cy="30.3" rx="3.4" ry="3.4"/>
	<ellipse cx="7.5" cy="30.3" rx="3.4" ry="3.4"/>
	<ellipse cx="49.9" cy="46" rx="3.4" ry="3.4"/>
	<ellipse cx="7.5" cy="46" rx="3.4" ry="3.4"/>
	<ellipse cx="8.6" cy="61.8" rx="3.4" ry="3.4"/>
	<ellipse cx="8.6" cy="77.5" rx="3.4" ry="3.4"/>
	<ellipse cx="30.8" cy="77.5" rx="3.4" ry="3.4"/>
	<ellipse cx="30.8" cy="61.8" rx="3.4" ry="3.4"/>
</g>
</svg>
