<?xml version="1.0" encoding="utf-8"?>
<!-- Generator: Adobe Illustrator 19.1.0, SVG Export Plug-In . SVG Version: 6.00 Build 0)  -->
<svg version="1.1" id="Layer_1" xmlns="http://www.w3.org/2000/svg" xmlns:xlink="http://www.w3.org/1999/xlink" x="0px" y="0px"
	 viewBox="-4 6 90 90" style="enable-background:new -4 6 90 90;" xml:space="preserve">
<style type="text/css">
	.st0{fill:#9DB770;}
	.st1{fill:#FFFFFF;}
</style>
<circle class="st0" cx="42" cy="51.8" r="28.2"/>
<g>
	<g id="XMLID_1_">
		<g>
			<path class="st1" d="M56.4,45c1.5,2,2.2,4.3,1.8,6.8c-0.3,1.8-1.5,3.1-2.8,4.4c0.6-2,0.8-4-0.3-5.8c-1.2-1.9-3.1-2.8-5.2-3.7
				c0,0.3,0,0.6,0,0.8c0,4,0,8,0,12c0,3.3-2,5.7-5.2,6.4C43.5,66,42.2,66,41,65.6c-2.3-0.9-3.3-3.2-2.2-5.5c1.2-2.4,3.3-3.5,5.9-3.8
				c0.5,0,1,0,1.7,0c0-6.7,0-13.3,0-20c0.1,0,0.2,0,0.2,0c1.3,1.9,3,3.2,4.9,4.4C53.4,41.9,55.1,43.2,56.4,45z"/>
			<path class="st1" d="M43.6,35.8c0.8,0,1.5,0.7,1.5,1.5s-0.7,1.5-1.5,1.5C43.6,37.7,43.6,36.8,43.6,35.8z"/>
			<path class="st1" d="M43.6,42.6c0.8,0,1.5,0.7,1.5,1.5s-0.7,1.5-1.5,1.5C43.6,44.6,43.6,43.6,43.6,42.6z"/>
			<path class="st1" d="M43.6,49.5c0.8,0,1.5,0.7,1.5,1.5s-0.7,1.5-1.5,1.5C43.6,51.4,43.6,50.5,43.6,49.5z"/>
			<path class="st1" d="M43.6,52.5C43.6,52.5,43.6,52.5,43.6,52.5c-6.2,0-12.3,0-18.5,0c0,0,0,0,0,0c0.8,0,1.5-0.7,1.5-1.5
				s-0.7-1.5-1.5-1.5c6.2,0,12.3,0,18.5,0c-0.8,0-1.5,0.7-1.5,1.5S42.8,52.5,43.6,52.5z"/>
			<path class="st1" d="M43.6,49.5c0,1,0,1.9,0,3c-0.8,0-1.5-0.7-1.5-1.5S42.8,49.5,43.6,49.5z"/>
			<path class="st1" d="M43.6,42.6c0,1,0,2,0,3c-0.8,0-1.5-0.7-1.5-1.5S42.8,42.6,43.6,42.6z"/>
			<path class="st1" d="M43.6,42.6C43.6,42.6,43.6,42.6,43.6,42.6c-0.8,0-1.5,0.7-1.5,1.5s0.7,1.5,1.5,1.5c-6.2,0-12.3,0-18.5,0
				c0.8,0,1.5-0.7,1.5-1.5s-0.7-1.5-1.5-1.5c0,0,0,0,0,0C31.3,42.6,37.4,42.6,43.6,42.6z"/>
			<path class="st1" d="M43.6,35.8c0,1,0,2,0,3c-0.8,0-1.5-0.7-1.5-1.5S42.8,35.8,43.6,35.8z"/>
			<path class="st1" d="M43.6,35.8c-0.8,0-1.5,0.7-1.5,1.5s0.7,1.5,1.5,1.5c-6.2,0-12.3,0-18.5,0c0.8,0,1.5-0.7,1.5-1.5
				s-0.7-1.5-1.5-1.5C31.3,35.8,37.4,35.8,43.6,35.8z"/>
			<path class="st1" d="M36.8,57.9c0,0.8-0.6,1.5-1.4,1.5c0-1,0-2,0-2.9C36.2,56.4,36.8,57.1,36.8,57.9z"/>
			<path class="st1" d="M35.4,63.2c0.8,0,1.4,0.7,1.4,1.5s-0.6,1.4-1.4,1.5C35.4,65.2,35.4,64.2,35.4,63.2z"/>
			<path class="st1" d="M35.4,63.2c0,1,0,1.9,0,2.9c0,0,0,0-0.1,0c-0.8,0-1.5-0.7-1.5-1.5S34.5,63.2,35.4,63.2
				C35.3,63.2,35.3,63.2,35.4,63.2z"/>
			<path class="st1" d="M35.4,59.3L35.4,59.3C35.3,59.4,35.3,59.4,35.4,59.3C35.3,59.4,35.3,59.4,35.4,59.3z"/>
			<path class="st1" d="M35.4,56.4c0,1,0,1.9,0,2.9c0,0,0,0-0.1,0c-0.8,0-1.5-0.7-1.5-1.5S34.5,56.4,35.4,56.4
				C35.3,56.4,35.3,56.4,35.4,56.4z"/>
			<path class="st1" d="M35.4,63.2L35.4,63.2C35.3,63.2,35.3,63.2,35.4,63.2C35.3,63.2,35.3,63.2,35.4,63.2z"/>
			<path class="st1" d="M35.4,66.2c-3.4,0-6.8,0-10.3,0c0,0,0-0.1,0-0.1c0.2,0.1,0.3,0.1,0.5,0.1c0.8,0,1.5-0.7,1.5-1.5
				s-0.7-1.5-1.5-1.5c3.3,0,6.5,0,9.7,0c-0.8,0-1.5,0.7-1.5,1.5S34.5,66.2,35.4,66.2C35.3,66.2,35.3,66.2,35.4,66.2
				C35.4,66.2,35.4,66.2,35.4,66.2z"/>
			<path class="st1" d="M25.6,56.4c0.8,0,1.5,0.7,1.5,1.5s-0.7,1.5-1.5,1.5c-0.2,0-0.3,0-0.4-0.1c0-1,0-1.9,0-2.8
				C25.3,56.4,25.5,56.4,25.6,56.4z"/>
			<path class="st1" d="M25.6,63.2c0.8,0,1.5,0.7,1.5,1.5s-0.7,1.5-1.5,1.5c-0.2,0-0.3,0-0.5-0.1c0-1,0-1.9,0-2.8
				C25.3,63.3,25.4,63.2,25.6,63.2z"/>
			<path class="st1" d="M25.6,56.4c-0.2,0-0.3,0-0.4,0.1c0,0,0-0.1,0-0.1c3.4,0,6.8,0,10.2,0c0,0,0,0,0,0.1c0,0,0,0-0.1,0
				c-0.8,0-1.5,0.7-1.5,1.5s0.7,1.5,1.5,1.5c-3.2,0-6.4,0-9.7,0c0.8,0,1.5-0.7,1.5-1.5S26.4,56.4,25.6,56.4z"/>
			<path class="st1" d="M25.6,59.4c-0.2,0-0.3,0-0.4,0c0,0,0,0,0-0.1C25.3,59.3,25.5,59.4,25.6,59.4z"/>
			<path class="st1" d="M25.1,63.2c0.2,0,0.3,0,0.5,0C25.4,63.2,25.3,63.3,25.1,63.2C25.1,63.3,25.1,63.3,25.1,63.2z"/>
			<path class="st1" d="M25.1,38.7c0-1,0-2,0-3c0.8,0,1.5,0.7,1.5,1.5S26,38.7,25.1,38.7z"/>
			<path class="st1" d="M25.1,42.6c0.8,0,1.5,0.7,1.5,1.5s-0.7,1.5-1.5,1.5C25.1,44.6,25.1,43.6,25.1,42.6z"/>
			<path class="st1" d="M25.1,49.5c0.8,0,1.5,0.7,1.5,1.5s-0.7,1.5-1.5,1.5C25.1,51.4,25.1,50.5,25.1,49.5z"/>
			<path class="st1" d="M25.2,56.5c0,0.9,0,1.9,0,2.8c-0.6-0.2-1-0.8-1-1.4C24.1,57.2,24.6,56.6,25.2,56.5z"/>
			<path class="st1" d="M25.1,63.3c0,0.9,0,1.8,0,2.8c-0.6-0.2-1-0.8-1-1.4S24.5,63.5,25.1,63.3z"/>
			<path class="st1" d="M25.1,49.5c0,1,0,1.9,0,3c-0.8,0-1.5-0.7-1.5-1.5S24.3,49.5,25.1,49.5z"/>
			<path class="st1" d="M25.1,42.6c0,1,0,2,0,3c-0.8,0-1.5-0.7-1.5-1.5S24.3,42.6,25.1,42.6z"/>
			<path class="st1" d="M25.1,35.8c0,1,0,2,0,3c-0.8,0-1.5-0.7-1.5-1.5S24.3,35.8,25.1,35.8z"/>
		</g>
		<g>
		</g>
	</g>
</g>
</svg>
