<?xml version="1.0" encoding="utf-8"?>
<!-- Generator: Adobe Illustrator 19.1.0, SVG Export Plug-In . SVG Version: 6.00 Build 0)  -->
<svg version="1.1" id="Layer_1" xmlns="http://www.w3.org/2000/svg" xmlns:xlink="http://www.w3.org/1999/xlink" x="0px" y="0px"
	 viewBox="-4 6 90 90" style="enable-background:new -4 6 90 90;" xml:space="preserve">
<style type="text/css">
	.st0{fill:#9DB770;}
	.st1{fill:#FFFFFF;}
</style>
<circle class="st0" cx="42" cy="51.8" r="28.2"/>
<g>
	<g id="XMLID_1_">
		<g>
			<path class="st1" d="M42.4,51.6c3.4,0.1,6.1,3.2,6.4,5.8c-1.2,0-2.4,0-3.5,0c-0.1,0-0.3-0.2-0.4-0.3c-0.6-1.1-1.5-1.7-2.6-1.9
				c-1-0.1-1.9,0.3-2.6,1.1c-0.2,0.3-0.4,0.6-0.6,0.8c-0.1,0.1-0.3,0.2-0.4,0.2c-1.1,0-2.2,0-3.3,0c-0.1,0-0.1-0.1-0.2-0.1
				C35.5,54.6,38.4,51.4,42.4,51.6z"/>
			<path class="st1" d="M34.3,52.6c-1,1.3-1.7,2.8-1.9,4.4c0,0.1-0.2,0.3-0.3,0.3c-0.9,0-1.8,0-2.8,0c0.1-0.6,0.2-1.2,0.3-1.8
				c0.5-1.6,1.1-3.1,2-4.5c1.3-2,3-3.5,5.1-4.5c2.1-1,4.3-1.4,6.5-1.2c3.6,0.4,6.5,2,8.7,4.9c1,1.3,1.8,2.9,2.3,4.5
				c0.2,0.8,0.3,1.6,0.5,2.5c-1,0-2,0-2.9,0c-0.1,0-0.2-0.2-0.2-0.3c-0.3-1.5-0.8-2.8-1.7-4c-1.3-1.9-3-3.1-5.2-3.9
				c-1.7-0.5-3.5-0.6-5.1-0.2C37.5,49.6,35.7,50.8,34.3,52.6z"/>
			<path class="st1" d="M60.5,56.5c0.1,0.9,0.1,0.9-0.8,0.9c-0.8,0-1.6,0-2.4,0c-0.2-0.8-0.3-1.6-0.5-2.3c-0.3-1.1-0.6-2.2-1.1-3.2
				c-0.8-1.7-1.9-3.3-3.2-4.6c-1.6-1.6-3.5-2.8-5.7-3.6c-2-0.8-4.2-0.9-6.3-0.8c-1.7,0.1-3.3,0.6-4.7,1.3c-2.3,1.1-4.2,2.6-5.8,4.7
				c-1.1,1.4-2,3-2.5,4.7c-0.3,1.2-0.6,2.3-0.8,3.5c0,0.1-0.2,0.3-0.2,0.3c-1,0-2.1,0-3.2,0c0.1-0.8,0.1-1.5,0.3-2.1
				c0.2-1,0.4-2,0.8-3.1c0.4-1.1,1-2.3,1.5-3.5c1.3-2.4,3-4.4,5.1-6.1c1.7-1.3,3.5-2.3,5.5-3c2.6-0.8,5.1-1.1,7.8-0.7
				c3.9,0.5,7.2,2.2,10.1,4.9c2.2,2.1,3.9,4.7,5,7.6C59.9,53,60.3,54.7,60.5,56.5z"/>
		</g>
		<g>
		</g>
	</g>
</g>
</svg>
