<svg xmlns="http://www.w3.org/2000/svg" viewBox="-4 6 90 90" enable-background="new -4 6 90 90"><style type="text/css">.st0{fill:#9DB770;} .st1{fill:#FFFFFF;}</style><circle class="st0" cx="42" cy="51.8" r="28.2"/><g id="XMLID_1_"><path class="st1" d="M42.4 51.6c3.4.1 6.1 3.2 6.4 5.8h-3.5c-.1 0-.3-.2-.4-.3-.6-1.1-1.5-1.7-2.6-1.9-1-.1-1.9.3-2.6 1.1-.2.3-.4.6-.6.8-.1.1-.3.2-.4.2h-3.3l-.2-.1c.3-2.6 3.2-5.8 7.2-5.6zM34.3 52.6c-1 1.3-1.7 2.8-1.9 4.4 0 .1-.2.3-.3.3h-2.8l.3-1.8c.5-1.6 1.1-3.1 2-4.5 1.3-2 3-3.5 5.1-4.5 2.1-1 4.3-1.4 6.5-1.2 3.6.4 6.5 2 8.7 4.9 1 1.3 1.8 2.9 2.3 4.5.2.8.3 1.6.5 2.5h-2.9c-.1 0-.2-.2-.2-.3-.3-1.5-.8-2.8-1.7-4-1.3-1.9-3-3.1-5.2-3.9-1.7-.5-3.5-.6-5.1-.2-2.1.8-3.9 2-5.3 3.8zM60.5 56.5c.1.9.1.9-.8.9h-2.4c-.2-.8-.3-1.6-.5-2.3-.3-1.1-.6-2.2-1.1-3.2-.8-1.7-1.9-3.3-3.2-4.6-1.6-1.6-3.5-2.8-5.7-3.6-2-.8-4.2-.9-6.3-.8-1.7.1-3.3.6-4.7 1.3-2.3 1.1-4.2 2.6-5.8 4.7-1.1 1.4-2 3-2.5 4.7-.3 1.2-.6 2.3-.8 3.5 0 .1-.2.3-.2.3h-3.2c.1-.8.1-1.5.3-2.1.2-1 .4-2 .8-3.1s1-2.3 1.5-3.5c1.3-2.4 3-4.4 5.1-6.1 1.7-1.3 3.5-2.3 5.5-3 2.6-.8 5.1-1.1 7.8-.7 3.9.5 7.2 2.2 10.1 4.9 2.2 2.1 3.9 4.7 5 7.6.5 1.6.9 3.3 1.1 5.1z"/></g></svg>