<svg xmlns="http://www.w3.org/2000/svg" viewBox="-4 6 90 90" enable-background="new -4 6 90 90"><style type="text/css">.st0{fill:#9DB770;} .st1{fill:#FFFFFF;}</style><circle class="st0" cx="41" cy="52.8" r="28.2"/><g id="XMLID_1_"><path class="st1" d="M46.3 49.5c.9 3.1.6 6-1.1 8.7-.1.1-.2.2-.3.2-1.2-.2-2.3-.7-3.2-1.5.7-1 1.1-2 1.3-3.2.5-3.1-1.4-6.5-4.4-7.6-3.6-1.4-7.5.2-9.1 3.7-1.3 2.8-.4 6.5 2.1 8.4 1.2.9 2.6 1.5 4.1 1.5.3 0 .5.1.7.3l.6.7c.6.7 1.3 1.3 2.1 1.8.1.1.2.2.3.2-.3.1-.5.2-.8.2-4.6 1.2-9.4-.8-11.8-4.8-2.5-4.1-2-9.3 1.3-12.8 2.4-2.6 5.4-3.7 8.9-3.4 2.9.2 5.6 1.7 7.4 4 .9 1.2 1.6 2.3 1.9 3.6zM44.5 42.2c2.6-.3 5 .2 7.2 1.7 2.3 1.5 3.8 3.6 4.5 6.3 1.2 4.5-.8 9.4-4.8 11.8-3.9 2.3-7.8 2.2-11.5-.2-.7-.4-1.3-.9-1.8-1.5-1.6-1.6-2.5-3.6-2.9-6-.3-2.5.2-4.8 1.5-7 0-.1.2-.2.3-.2.5.1.9.2 1.3.3.7.3 1.3.7 1.9 1.2-.5.7-.9 1.5-1.2 2.3-.9 3.1.7 6.7 3.6 8.1 3.5 1.8 7.5.5 9.4-2.8 1.8-3.2.8-7.5-2.4-9.4-1.1-.7-2.3-1.1-3.5-1.1-.2 0-.4 0-.5-.2 0 0-.1-.1-.1-.2-.8-1-1.7-1.8-2.7-2.5-.1 0-.1-.1-.2-.2v-.1c.5 0 1.2-.2 1.9-.3z"/></g></svg>