<?xml version="1.0" encoding="utf-8"?>
<!-- Generator: Adobe Illustrator 19.1.0, SVG Export Plug-In . SVG Version: 6.00 Build 0)  -->
<svg version="1.1" id="Layer_1" xmlns="http://www.w3.org/2000/svg" xmlns:xlink="http://www.w3.org/1999/xlink" x="0px" y="0px"
	 viewBox="-4 6 90 90" style="enable-background:new -4 6 90 90;" xml:space="preserve">
<style type="text/css">
	.st0{fill:#9DB770;}
	.st1{fill:#FFFFFF;}
</style>
<circle class="st0" cx="41" cy="52.8" r="28.2"/>
<g>
	<g id="XMLID_1_">
		<g>
			<path class="st1" d="M46.3,49.5c0.9,3.1,0.6,6-1.1,8.7c-0.1,0.1-0.2,0.2-0.3,0.2c-1.2-0.2-2.3-0.7-3.2-1.5c0.7-1,1.1-2,1.3-3.2
				c0.5-3.1-1.4-6.5-4.4-7.6c0,0,0,0,0,0c-3.6-1.4-7.5,0.2-9.1,3.7c-1.3,2.8-0.4,6.5,2.1,8.4c1.2,0.9,2.6,1.5,4.1,1.5
				c0.3,0,0.5,0.1,0.7,0.3c0.2,0.2,0.4,0.5,0.6,0.7c0.6,0.7,1.3,1.3,2.1,1.8c0.1,0.1,0.2,0.2,0.3,0.2c-0.3,0.1-0.5,0.2-0.8,0.2
				c-4.6,1.2-9.4-0.8-11.8-4.8c-2.5-4.1-2-9.3,1.3-12.8c2.4-2.6,5.4-3.7,8.9-3.4c2.9,0.2,5.6,1.7,7.4,4C45.3,47.1,46,48.2,46.3,49.5
				z"/>
			<path class="st1" d="M44.5,42.2c2.6-0.3,5,0.2,7.2,1.7c2.3,1.5,3.8,3.6,4.5,6.3c1.2,4.5-0.8,9.4-4.8,11.8
				c-3.9,2.3-7.8,2.2-11.5-0.2c-0.7-0.4-1.3-0.9-1.8-1.5c-1.6-1.6-2.5-3.6-2.9-6c-0.3-2.5,0.2-4.8,1.5-7c0-0.1,0.2-0.2,0.3-0.2
				c0.5,0.1,0.9,0.2,1.3,0.3c0.7,0.3,1.3,0.7,1.9,1.2c-0.5,0.7-0.9,1.5-1.2,2.3c-0.9,3.1,0.7,6.7,3.6,8.1c3.5,1.8,7.5,0.5,9.4-2.8
				c1.8-3.2,0.8-7.5-2.4-9.4c-1.1-0.7-2.3-1.1-3.5-1.1c-0.2,0-0.4,0-0.5-0.2c0,0-0.1-0.1-0.1-0.2c-0.8-1-1.7-1.8-2.7-2.5
				c-0.1,0-0.1-0.1-0.2-0.2c0,0,0,0,0-0.1C43.1,42.5,43.8,42.3,44.5,42.2z"/>
		</g>
		<g>
		</g>
	</g>
</g>
</svg>
