<?xml version="1.0" encoding="utf-8"?>
<!-- Generator: Adobe Illustrator 19.1.0, SVG Export Plug-In . SVG Version: 6.00 Build 0)  -->
<svg version="1.1" id="Layer_1" xmlns="http://www.w3.org/2000/svg" xmlns:xlink="http://www.w3.org/1999/xlink" x="0px" y="0px"
	 viewBox="0 0 50 50" style="enable-background:new 0 0 50 50;" xml:space="preserve">
<style type="text/css">
	.st0{fill:#9EB770;}
</style>
<g>
	<g id="XMLID_1_">
		<g>
			<path class="st0" d="M22.4,30.6c-1.6,1.3-3.4,1.6-5.3,1.9c1,0.5,2,1,3.1,1.2C27,35.3,33.6,30.5,34,23.4c0-0.9,0.2-1.6,1-2.1
				c0.3-0.2,0.5-0.6,0.9-1.1c-0.8,0.2-1.3,0.3-1.8,0.4c0.5-0.6,0.9-1.2,1.3-1.8c-0.3-0.1-0.5,0-0.6,0c-0.9,0.5-1.7,0.6-2.7-0.1
				c-2.5-1.6-5.8,0.3-5.9,3.3c0,0.3,0,0.6,0,1c-3.4-0.1-6-1.7-8.2-4.1c-0.9,2-0.5,3.7,1.2,5.3c-0.7-0.2-1.2-0.3-1.7-0.4
				c0.1,1.9,1.1,3.1,3,3.9c-0.6,0.1-1,0.1-1.5,0.2C19.5,29.6,20.7,30.3,22.4,30.6z M25.1,42.2c-9.4,0-16.9-7.6-16.9-17.1
				c0-9.4,7.6-17,17.1-16.9c9.4,0,16.9,7.7,16.9,17.1C42.2,34.7,34.5,42.2,25.1,42.2z"/>
		</g>
		<g>
		</g>
	</g>
</g>
</svg>
