<?xml version="1.0" encoding="utf-8"?>
<!-- Generator: Adobe Illustrator 19.1.0, SVG Export Plug-In . SVG Version: 6.00 Build 0)  -->
<svg version="1.1" id="Layer_1" xmlns="http://www.w3.org/2000/svg" xmlns:xlink="http://www.w3.org/1999/xlink" x="0px" y="0px"
	 viewBox="0 0 90 90" enable-background="new 0 0 90 90" xml:space="preserve">
<g>
	<g id="XMLID_27_">
		<g>
			<path d="M47.7,51c0.3,0.8,0.7,1.3,1.6,1.3c0.8,0,1.3-0.6,1.5-1.3c1.3-3.8,2.6-7.6,3.9-11.5c0.3-0.9,0-1.6-0.8-1.9
				c-0.8-0.3-1.5,0.1-1.8,1c-0.4,1.1-0.8,2.3-1.2,3.4c-0.5,1.6-1.1,3.2-1.7,5c-0.2-0.7-0.4-1.1-0.6-1.6c-0.8-2.3-1.5-4.5-2.3-6.8
				c-0.2-0.6-0.6-1-1.3-1c-0.7,0-1.1,0.4-1.3,1c-0.1,0.3-0.2,0.7-0.3,1c-0.8,2.4-1.7,4.8-2.5,7.3c-0.1-0.3-0.2-0.5-0.2-0.7
				c-0.8-2.4-1.6-4.9-2.5-7.3c-0.4-1.2-1-1.6-1.9-1.4c-0.8,0.2-1.1,1-0.7,2.2c0.4,1.2,0.8,2.5,1.3,3.7c0.8,2.5,1.6,4.9,2.5,7.4
				c0.4,1.2,1.4,1.7,2.3,1.1c0.4-0.3,0.7-0.8,0.9-1.2c0.9-2.4,1.7-4.9,2.5-7.4c0.1,0,0.1,0,0.2,0C46,45.9,46.8,48.5,47.7,51z
				 M26.1,51c0.3,0.8,0.7,1.3,1.6,1.3c0.8,0,1.3-0.5,1.5-1.3c1.3-3.8,2.6-7.6,3.8-11.4c0.3-1,0-1.7-0.8-2c-0.8-0.3-1.5,0.1-1.8,1.1
				c-0.3,1-0.7,2-1,3c-0.6,1.7-1.2,3.4-1.8,5.3c-0.2-0.4-0.3-0.7-0.4-0.9c-0.8-2.4-1.7-4.8-2.5-7.2c-0.2-0.7-0.6-1.2-1.5-1.2
				c-0.8,0-1.1,0.5-1.4,1.2c-0.7,1.9-1.3,3.9-2,5.8c-0.2,0.7-0.5,1.4-0.8,2.3c-0.2-0.5-0.3-0.8-0.4-1.2c-0.8-2.3-1.6-4.7-2.4-7
				c-0.3-1-1.1-1.4-1.9-1.1c-0.8,0.3-1,1-0.7,2c0.6,1.8,1.2,3.5,1.8,5.3c0.7,2.1,1.4,4.1,2.1,6.2c0.2,0.7,0.7,1.1,1.4,1.2
				c0.8,0,1.3-0.4,1.5-1.1c0.1-0.2,0.2-0.5,0.2-0.7c0.8-2.3,1.6-4.7,2.5-7.2c0.2,0.5,0.3,0.9,0.4,1.2C24.6,46.6,25.4,48.8,26.1,51z
				 M50.4,3c9.5,1.3,17.7,5.3,24.4,12c6.6,6.6,10.6,14.5,11.9,23.8c0.2,1.4,0.3,2.7,0.5,4.1c0,1.3,0,2.6,0,4
				c-0.1,1.1-0.2,2.3-0.4,3.4c-1.2,8.6-4.6,16.2-10.4,22.7c-6.8,7.6-15.3,12.2-25.4,13.7c-1.4,0.2-2.7,0.3-4.1,0.5c-1.3,0-2.6,0-4,0
				c-0.1,0-0.2-0.1-0.3-0.1c-1.4-0.2-2.9-0.2-4.3-0.5c-9.4-1.6-17.4-5.7-24-12.7C8.3,67.5,4.5,59.8,3.3,51c-0.2-1.3-0.3-2.6-0.5-3.9
				c0-1.4,0-2.9,0-4.3c0.1-1.1,0.2-2.2,0.4-3.3c1.3-9,4.9-16.9,11.2-23.5C21,8.9,29.3,4.6,39,3.2c1.3-0.2,2.6-0.3,3.9-0.5
				c1.4,0,2.9,0,4.3,0C48.2,2.8,49.3,2.9,50.4,3z M72.7,41.5c-0.6,1.8-1.2,3.6-1.9,5.6c-1-2.9-1.9-5.5-2.8-8.2
				c-0.2-0.7-0.6-1.2-1.4-1.2c-0.8,0-1.1,0.5-1.4,1.2c-0.6,1.7-1.1,3.4-1.7,5.1c-0.3,1-0.7,1.9-1.1,3.1c-0.2-0.5-0.3-0.8-0.4-1
				c-0.8-2.4-1.6-4.8-2.5-7.2c-0.2-0.4-0.6-1-1-1.1c-1.1-0.4-1.9,0.7-1.5,1.9c0.9,2.6,1.8,5.3,2.6,7.9c0.4,1.2,0.8,2.5,1.2,3.7
				c0.2,0.7,0.7,1.1,1.5,1.1c0.7,0,1.2-0.4,1.5-1.1c0.1-0.2,0.1-0.4,0.2-0.5c0.8-2.4,1.7-4.8,2.6-7.4c0.1,0.3,0.2,0.5,0.2,0.6
				c0.8,2.4,1.6,4.8,2.5,7.2c0.3,0.7,0.7,1.3,1.5,1.3c0.8,0,1.3-0.5,1.6-1.2c1.3-3.8,2.6-7.7,3.9-11.5c0.3-0.8-0.1-1.6-0.8-1.8
				c-0.8-0.3-1.5,0.1-1.8,1C73.3,39.6,73,40.5,72.7,41.5z"/>
		</g>
		<g>
		</g>
	</g>
</g>
</svg>
