<svg xmlns="http://www.w3.org/2000/svg" viewBox="-4 6 90 90" enable-background="new -4 6 90 90"><style type="text/css">.st0{fill:#9DB770;} .st1{fill:#FFFFFF;}</style><circle class="st0" cx="41" cy="52.8" r="28.2"/><g id="XMLID_1_"><path class="st1" d="M49.1 48.9c.2.1.5.4.6.7l1.5 4.3c.1.1.1.3.2.6.2-.7.5-1.2.7-1.8.4-1 .7-2 1-3 .2-.4.4-.7.8-.7.5 0 .7.3.8.7.5 1.6 1.1 3.1 1.7 4.9.4-1.2.8-2.3 1.1-3.3.2-.6.4-1.1.6-1.5.2-.5.6-.8 1.1-.6.4.1.7.6.5 1.1-.8 2.3-1.5 4.6-2.3 6.8-.2.4-.5.7-1 .7s-.7-.4-.9-.8l-1.5-4.3-.1-.3c-.5 1.5-1.1 3-1.5 4.4-.1.1-.1.2-.1.3-.2.4-.5.7-.9.7-.5 0-.8-.2-.9-.7l-.7-2.2c-.5-1.6-1-3.2-1.5-4.7-.4-.9.1-1.5.8-1.3zM37.7 56.6l-1.5-4.4-.8-2.2c-.2-.7-.1-1.2.4-1.3.5-.1.9.1 1.1.8l1.5 4.3c0 .1.1.2.1.4.5-1.5 1-2.9 1.5-4.3l.2-.6c.1-.4.4-.6.8-.6s.7.2.8.6c.5 1.4.9 2.7 1.4 4 .1.3.2.5.4 1 .4-1.1.7-2 1-3 .2-.7.5-1.4.7-2 .2-.5.6-.8 1.1-.6.5.2.7.6.5 1.1-.8 2.3-1.5 4.6-2.3 6.8-.1.4-.4.8-.9.8s-.8-.3-.9-.8c-.5-1.5-1-3-1.4-4.6h-.1c-.5 1.5-.9 3-1.5 4.4-.1.2-.3.5-.5.7-.8.6-1.3.2-1.6-.5zM33.4 48.8c.5.2.7.6.5 1.2-.7 2.3-1.5 4.5-2.3 6.8-.1.5-.4.8-.9.8s-.8-.3-1-.8c-.4-1.3-.9-2.6-1.5-3.8-.1-.2-.1-.4-.2-.7-.5 1.5-1 2.9-1.5 4.3l-.1.4c-.1.4-.4.7-.9.7-.4-.1-.7-.3-.8-.7-.4-1.2-.8-2.4-1.2-3.7-.4-1.1-.7-2.1-1.1-3.1-.2-.6-.1-1 .4-1.2.5-.2.9.1 1.1.7.5 1.4 1 2.8 1.4 4.2.1.2.1.4.2.7.2-.5.4-1 .5-1.4l1.2-3.4c.2-.4.4-.7.8-.7.5 0 .8.3.9.7l1.5 4.3c.1.1.1.3.2.5.3-1.1.7-2.1 1.1-3.2l.6-1.8c.2-.8.7-1 1.1-.8z"/></g></svg>