<?xml version="1.0" encoding="utf-8"?>
<!-- Generator: Adobe Illustrator 19.1.0, SVG Export Plug-In . SVG Version: 6.00 Build 0)  -->
<svg version="1.1" id="Layer_1" xmlns="http://www.w3.org/2000/svg" xmlns:xlink="http://www.w3.org/1999/xlink" x="0px" y="0px"
	 viewBox="-4 6 90 90" style="enable-background:new -4 6 90 90;" xml:space="preserve">
<style type="text/css">
	.st0{fill:#9DB770;}
	.st1{fill:#FFFFFF;}
</style>
<circle class="st0" cx="41" cy="52.8" r="28.2"/>
<g>
	<g id="XMLID_1_">
		<g>
			<path class="st1" d="M49.1,48.9c0.2,0.1,0.5,0.4,0.6,0.7c0.5,1.4,1,2.9,1.5,4.3c0.1,0.1,0.1,0.3,0.2,0.6c0.2-0.7,0.5-1.2,0.7-1.8
				c0.4-1,0.7-2,1-3c0.2-0.4,0.4-0.7,0.8-0.7c0.5,0,0.7,0.3,0.8,0.7c0.5,1.6,1.1,3.1,1.7,4.9c0.4-1.2,0.8-2.3,1.1-3.3
				c0.2-0.6,0.4-1.1,0.6-1.5c0.2-0.5,0.6-0.8,1.1-0.6c0.4,0.1,0.7,0.6,0.5,1.1c-0.8,2.3-1.5,4.6-2.3,6.8c-0.2,0.4-0.5,0.7-1,0.7
				s-0.7-0.4-0.9-0.8c-0.5-1.4-1-2.9-1.5-4.3c0-0.1-0.1-0.2-0.1-0.3c-0.5,1.5-1.1,3-1.5,4.4c-0.1,0.1-0.1,0.2-0.1,0.3
				c-0.2,0.4-0.5,0.7-0.9,0.7c-0.5,0-0.8-0.2-0.9-0.7c-0.2-0.7-0.5-1.5-0.7-2.2c-0.5-1.6-1-3.2-1.5-4.7
				C47.9,49.3,48.4,48.7,49.1,48.9z"/>
			<path class="st1" d="M37.7,56.6c-0.5-1.5-1-2.9-1.5-4.4c-0.3-0.7-0.5-1.5-0.8-2.2c-0.2-0.7-0.1-1.2,0.4-1.3
				c0.5-0.1,0.9,0.1,1.1,0.8c0.5,1.4,1,2.9,1.5,4.3c0,0.1,0.1,0.2,0.1,0.4c0.5-1.5,1-2.9,1.5-4.3c0.1-0.2,0.1-0.4,0.2-0.6
				c0.1-0.4,0.4-0.6,0.8-0.6c0.4,0,0.7,0.2,0.8,0.6c0.5,1.4,0.9,2.7,1.4,4c0.1,0.3,0.2,0.5,0.4,1c0.4-1.1,0.7-2,1-3
				c0.2-0.7,0.5-1.4,0.7-2c0.2-0.5,0.6-0.8,1.1-0.6c0.5,0.2,0.7,0.6,0.5,1.1c-0.8,2.3-1.5,4.6-2.3,6.8c-0.1,0.4-0.4,0.8-0.9,0.8
				c-0.5,0-0.8-0.3-0.9-0.8c-0.5-1.5-1-3-1.4-4.6c-0.1,0-0.1,0-0.1,0c-0.5,1.5-0.9,3-1.5,4.4c-0.1,0.2-0.3,0.5-0.5,0.7
				C38.5,57.7,38,57.3,37.7,56.6z"/>
			<path class="st1" d="M33.4,48.8c0.5,0.2,0.7,0.6,0.5,1.2c-0.7,2.3-1.5,4.5-2.3,6.8c-0.1,0.5-0.4,0.8-0.9,0.8
				c-0.5,0-0.8-0.3-1-0.8c-0.4-1.3-0.9-2.6-1.5-3.8c-0.1-0.2-0.1-0.4-0.2-0.7c-0.5,1.5-1,2.9-1.5,4.3c0,0.1-0.1,0.3-0.1,0.4
				c-0.1,0.4-0.4,0.7-0.9,0.7c-0.4-0.1-0.7-0.3-0.8-0.7c-0.4-1.2-0.8-2.4-1.2-3.7c-0.4-1.1-0.7-2.1-1.1-3.1c-0.2-0.6-0.1-1,0.4-1.2
				c0.5-0.2,0.9,0.1,1.1,0.7c0.5,1.4,1,2.8,1.4,4.2c0.1,0.2,0.1,0.4,0.2,0.7c0.2-0.5,0.4-1,0.5-1.4c0.4-1.1,0.8-2.3,1.2-3.4
				c0.2-0.4,0.4-0.7,0.8-0.7c0.5,0,0.8,0.3,0.9,0.7c0.5,1.4,1,2.9,1.5,4.3c0.1,0.1,0.1,0.3,0.2,0.5c0.3-1.1,0.7-2.1,1.1-3.2
				c0.2-0.6,0.4-1.2,0.6-1.8C32.5,48.8,33,48.6,33.4,48.8z"/>
		</g>
		<g>
		</g>
	</g>
</g>
</svg>
